<?xml version="1.0" encoding="UTF-8" standalone="no"?>
<!-- Generator: Adobe Illustrator 28.0.0, SVG Export Plug-In . SVG Version: 6.00 Build 0)  -->

<svg
   version="1.1"
   id="Layer_1"
   x="0px"
   y="0px"
   viewBox="0 0 408.5 125"
   style="enable-background:new 0 0 408.5 125;"
   xml:space="preserve"
   xmlns="http://www.w3.org/2000/svg"
   xmlns:svg="http://www.w3.org/2000/svg"><defs
   id="defs19" />
<style
   type="text/css"
   id="style2">
	.st0{fill:#FFFFFF;}
	.st1{fill-rule:evenodd;clip-rule:evenodd;fill:#FFFFFF;}
</style>






<path
   style="fill:#d5fff6;fill-opacity:1;stroke-width:0.386088"
   d="M 106.67475,149.18774 C 90.641106,127.78181 80.419236,113.69844 72.136763,101.6024 65.666434,92.152895 52.990603,73.649633 43.968244,60.484035 34.945892,47.318435 24.623026,32.24844 21.028581,26.995158 17.434135,21.741871 14.362914,17.441816 14.203641,17.43948 14.04434,17.437069 13.914092,40.455723 13.914092,68.591882 V 119.74854 H 10.4393 6.9645075 V 64.139226 8.5299166 l 4.3088425,0.1091711 4.308843,0.1091721 6.734891,10.0382862 c 3.704196,5.521059 26.291051,39.313402 50.19303,75.094108 23.901978,35.780696 46.440926,69.486176 50.086526,74.901046 7.14612,10.61431 7.27351,10.81047 7.02063,10.81047 -0.0929,0 -10.41694,-13.68199 -22.94252,-30.40443 z M 100.39779,64.151868 V 8.5552071 h 37.25748 37.25749 v 2.8935509 2.893553 l -33.87919,0.09863 -33.87925,0.09861 -0.0996,22.296579 -0.0996,22.296578 h 31.85541 31.85538 v 2.893416 2.893418 l -31.75574,0.09877 -31.75574,0.09877 -0.0995,24.420061 -0.0994,24.420067 h 34.36471 34.36471 v 2.89566 2.89565 h -37.6435 -37.6436 z m 78.76195,55.389912 c 0,-0.12858 9.22878,-12.92056 20.50839,-28.426622 18.13784,-24.934049 20.46291,-28.289142 20.115,-29.025897 -0.21634,-0.458179 -3.4077,-5.018079 -7.09184,-10.133109 C 194.04184,26.06345 182.04223,9.2850775 181.9267,8.9398354 c -0.0796,-0.2381266 1.32008,-0.3846283 3.67497,-0.3846283 h 3.80364 l 11.5455,16.1191709 c 6.35002,8.865544 14.16508,19.802337 17.36683,24.303986 3.20174,4.501646 5.99507,8.184226 6.20743,8.183504 0.21234,-7.74e-4 8.67642,-11.328428 18.80908,-25.172683 12.83791,-17.540465 25.04273,-33.5956033 40.25887,-52.959605 12.00973,-15.283526 22.03118,-27.966515 22.26987,-28.184418 0.65563,-0.59853 0.1008,0.212079 -32.62651,47.6717578 -2.12326,3.0790531 -10.92729,15.8489112 -19.56453,28.3774652 -8.63722,12.528552 -17.72086,25.700235 -20.18582,29.270411 l -4.48178,6.491218 3.38918,4.705331 c 1.86402,2.587929 11.13981,15.433747 20.61286,28.54626 l 17.22368,23.840935 -4.12717,-0.0128 -4.12719,-0.0128 -14.09221,-19.56781 C 223.93449,66.901027 224.67473,67.888238 224.1207,68.464457 c -0.42492,0.441903 -9.28771,12.620607 -22.99152,31.593593 -2.07056,2.86671 -6.09091,8.42636 -8.93408,12.35481 l -5.16945,7.14263 -3.93293,0.11007 c -2.16315,0.0604 -3.93298,0.004 -3.93298,-0.12376 z m 133.10519,-52.39773 -0.098,-52.604481 -19.40093,-0.10011 -19.40091,-0.10011 V 11.447276 8.5551878 h 42.46967 42.46965 v 2.8921232 2.892119 l -19.59394,0.10006 -19.59397,0.100059 -0.098,52.604479 -0.098,52.604472 h -3.27899 -3.27899 z m 55.68022,44.4001 c -1.9636,-0.99196 -3.46319,-2.98106 -3.46319,-4.59361 0,-1.03835 0.0938,-1.10118 1.64314,-1.10118 1.43474,0 1.70484,0.13942 2.12964,1.09911 0.98182,2.21805 4.09801,2.67212 5.9091,0.86103 l 1.12855,-1.12857 v -9.488845 -9.488851 h 1.75514 1.7551 l -0.11419,10.32785 c -0.11278,10.197476 -0.12596,10.344246 -1.04129,11.627636 -1.90915,2.67681 -6.40571,3.55067 -9.70197,1.88543 z m 21.3776,0.33989 c -2.98185,-0.97929 -4.38994,-2.44702 -5.32644,-5.55206 -0.24764,-0.82106 -0.15465,-0.86871 1.69447,-0.86871 1.35777,0 1.95644,0.15513 1.95644,0.5069 0,0.9235 2.09664,2.52225 3.89799,2.97235 3.37691,0.84378 6.91247,-0.93623 6.91247,-3.48012 0,-1.75916 -1.45826,-2.891 -4.74522,-3.68302 -4.65072,-1.12064 -6.75281,-2.048003 -7.82319,-3.451366 -2.81748,-3.693895 -0.86784,-9.042913 3.80139,-10.429528 5.68952,-1.689598 10.90471,0.604405 12.06381,5.3065 0.25682,1.041879 0.22862,1.061745 -1.50761,1.061745 -1.5742,0 -1.83519,-0.127356 -2.36641,-1.154627 -1.05642,-2.042829 -3.42658,-2.941011 -6.14375,-2.328186 -2.01351,0.454119 -3.31731,1.762546 -3.31731,3.329044 0,1.585419 1.2795,2.655833 4.11478,3.442421 1.13444,0.314715 3.05386,0.848054 4.26536,1.185182 6.4413,1.792445 7.47757,9.278775 1.72406,12.455105 -2.05415,1.13399 -6.76971,1.4868 -9.20084,0.68837 z m -33.46795,-0.56332 c -1.39651,-1.54311 -0.31781,-3.92701 1.7769,-3.92701 1.31485,0 2.21717,0.94277 2.21717,2.31655 0,0.6067 -0.27299,1.37612 -0.6067,1.70981 -0.81918,0.81919 -2.60345,0.76686 -3.38737,-0.0993 z"
   id="path131" /></svg>
