<?xml version="1.0" encoding="UTF-8" standalone="no"?>
<!-- Generator: Adobe Illustrator 28.0.0, SVG Export Plug-In . SVG Version: 6.00 Build 0)  -->

<svg
   version="1.1"
   id="Layer_1"
   x="0px"
   y="0px"
   viewBox="0 0 408.5 125"
   style="enable-background:new 0 0 408.5 125;"
   xml:space="preserve"
   xmlns="http://www.w3.org/2000/svg"
   xmlns:svg="http://www.w3.org/2000/svg"><defs
   id="defs19" />
<style
   type="text/css"
   id="style2">
	.st0{fill:#FFFFFF;}
	.st1{fill-rule:evenodd;clip-rule:evenodd;fill:#FFFFFF;}
</style>






<path
   style="fill:#ffffff;stroke-width:0.628493"
   d="m -105.54754,98.746764 c -6.38684,-5.167831 -12.54287,-15.211857 -13.67933,-22.318894 -0.44428,-2.77844 -0.12489,-3.214542 4.75432,-6.491463 l 2.8152,-1.890701 0.82478,4.527791 c 1.55695,8.547067 6.86162,17.031888 13.401927,21.436398 l 3.06261,2.062486 -1.40502,1.198846 c -1.391215,1.187066 -1.395972,1.18649 -0.483948,-0.05819 0.909557,-1.24127 0.903713,-1.242187 -0.467386,-0.07309 -0.763654,0.651118 -1.210016,1.472581 -0.991925,1.825472 0.21809,0.352879 0.102063,0.459608 -0.25785,0.237166 -0.359918,-0.222441 -1.001298,0.0136 -1.425318,0.524467 -0.424,0.510898 -1.06538,0.746898 -1.4253,0.524468 -0.36516,-0.22568 -0.46805,-0.10291 -0.23279,0.27774 1.15939,1.87594 -1.05509,0.99679 -4.48997,-1.782506 z M 21.111662,91.855973 C 15.12361,90.345926 8.791075,85.798678 5.9776652,80.988627 2.7742134,75.511689 2.4165365,72.868859 2.4165365,54.675693 V 37.820426 h 7.5038795 7.503868 l 0.195179,16.49797 c 0.192471,16.269993 0.216874,16.536182 1.766401,19.263673 3.909574,6.881702 13.694173,6.788329 17.680864,-0.16871 1.445445,-2.522387 1.493806,-3.071045 1.683374,-19.094963 l 0.195178,-16.49797 h 7.50388 7.503868 v 16.523039 c 0,18.378222 -0.476093,21.708433 -3.856651,26.976581 -2.558597,3.987239 -5.63244,6.580688 -10.4985,8.857797 -3.459087,1.618695 -4.919037,1.920204 -10.085678,2.082899 -3.322611,0.104619 -7.102852,-0.07755 -8.400537,-0.404769 z m 54.341286,-0.27674 c -6.24927,-1.417644 -15.843464,-6.293264 -15.843464,-8.051388 0,-0.642866 6.629768,-9.005271 7.629069,-9.622884 0.302465,-0.186927 1.382257,0.252796 2.399552,0.977173 4.010949,2.856054 8.787782,4.536107 13.731336,4.82943 5.91873,0.351178 7.889111,-0.460921 8.172812,-3.36846 0.246231,-2.523551 -0.180895,-2.749854 -9.750354,-5.165767 -4.168382,-1.052354 -8.84333,-2.455378 -10.388751,-3.117821 -3.428317,-1.469547 -7.109444,-4.613825 -8.470555,-7.235234 -1.319524,-2.541309 -1.329817,-9.949791 -0.01805,-13.035665 1.569824,-3.693118 5.135674,-7.121787 9.394399,-9.032981 3.525022,-1.581947 4.606423,-1.756777 10.848937,-1.754005 7.428029,0.0027 12.087576,0.988317 17.276921,3.652317 5.81408,2.984696 5.73871,2.603807 1.66036,8.391004 -1.98306,2.813972 -3.7369,5.11632 -3.89742,5.11632 -0.16051,0 -1.637927,-0.682111 -3.283145,-1.515801 -6.652667,-3.371169 -14.196783,-4.386149 -16.764133,-2.255454 -1.452808,1.205726 -1.183874,4.216956 0.471031,5.274072 0.77776,0.496805 4.877357,1.767121 9.110228,2.822903 13.214489,3.296039 17.625149,6.263616 18.975219,12.7669 1.78195,8.583569 -3.00971,16.819254 -11.432913,19.650395 -4.445001,1.494028 -14.67477,1.842368 -19.821005,0.674946 z m -168.51878,-2.240102 c -7.289478,-4.71142 -11.332218,-11.783083 -11.841398,-20.713251 -0.30665,-5.378153 -0.28053,-5.506193 1.36128,-6.674388 0.92066,-0.655067 2.8666,-2.104501 4.32431,-3.220949 l 2.65039,-2.02991 0.330204,7.686361 c 0.300546,6.995905 0.496339,7.988878 2.179707,11.054325 2.420101,4.407035 6.008023,7.402349 10.5295,8.790371 l 3.656524,1.12249 -1.385446,1.215744 c -0.84492,0.741443 -1.173626,0.847957 -0.842521,0.273027 0.466986,-0.810883 0.395156,-0.822901 -0.51354,-0.08592 -0.581054,0.471254 -0.901476,1.107608 -0.712046,1.414114 0.18943,0.306492 -0.06188,0.557275 -0.558458,0.557275 -0.496582,0 -1.247455,0.415191 -1.668607,0.922643 -0.421152,0.507463 -1.092132,0.860982 -1.491068,0.785617 -0.398935,-0.07533 -0.670343,0.169364 -0.603129,0.543832 0.232961,1.297935 -1.840104,0.669623 -5.415702,-1.641396 z M 114.28844,64.845667 V 37.820426 h 21.68305 21.68304 v 6.599194 6.599179 h -14.14112 -14.1411 v 3.142473 3.14246 h 12.88412 12.88412 v 6.586168 6.586182 l -12.727,0.170135 -12.72701,0.170136 -0.18848,3.613843 -0.18849,3.613831 h 14.17249 14.17247 v 6.91344 6.913428 h -21.68304 -21.68305 z m 51.5365,-0.03806 V 37.74433 l 16.49798,0.195178 c 15.91709,0.188301 16.59754,0.247305 19.32618,1.675907 6.65475,3.484183 10.08878,8.550469 10.54664,15.559701 0.45933,7.031985 -1.93859,12.45842 -7.11887,16.109822 -1.53959,1.085206 -2.79928,2.146899 -2.79928,2.359313 0,0.212415 2.68962,4.188185 5.97693,8.835057 l 5.97693,8.448845 -2.67733,0.42479 c -1.47254,0.233626 -5.23375,0.445752 -8.35823,0.471371 l -5.68091,0.04655 -5.63836,-8.013292 c -5.59299,-7.948874 -5.65975,-8.01485 -8.30307,-8.206561 L 180.9088,75.45774 v 8.206549 8.206563 h -7.54193 -7.54193 V 64.807573 Z m 28.8625,-4.73152 c 2.49683,-2.100947 2.64215,-5.030181 0.35612,-7.177786 -1.4266,-1.340226 -2.16347,-1.48605 -7.69905,-1.523661 l -6.12146,-0.04159 -0.18254,5.185068 -0.18254,5.18508 h 5.94788 c 5.48193,0 6.09938,-0.127504 7.88159,-1.627103 z m 45.18615,31.339556 -2.31338,-0.243944 -2.49165,-7.349451 c -1.37042,-4.042229 -5.4791,-16.046267 -9.1304,-26.675672 l -6.63872,-19.326181 h 3.3667 3.3667 l 1.63473,4.556572 c 0.89912,2.506119 4.28101,12.314806 7.51531,21.797071 l 5.88055,17.240498 7.2106,-21.639948 7.21061,-21.639947 3.51875,-0.187136 3.51878,-0.187135 7.08153,21.72997 c 3.89484,11.951481 7.27351,21.368817 7.50817,20.927431 0.23465,-0.441397 3.64401,-10.205059 7.57637,-21.697028 l 7.14974,-20.89449 3.29958,-0.0027 c 1.81478,-0.0012 3.29628,0.209184 3.29222,0.468442 -0.009,0.560924 -18.06431,53.007594 -18.34181,53.278242 -0.10528,0.102659 -1.51184,0.03675 -3.12574,-0.14648 l -2.93436,-0.333143 -7.39962,-22.554534 c -4.06979,-12.404987 -7.57369,-22.340276 -7.78644,-22.078415 -0.21276,0.261871 -3.7092,10.58702 -7.76984,22.944772 -4.50011,13.695075 -7.67628,22.427396 -8.13402,22.363004 -0.41305,-0.05819 -1.79201,-0.215422 -3.06436,-0.349596 z m 62.49758,-0.05924 c -0.57128,-0.362816 2.36045,-7.584933 10.96665,-27.015615 l 11.74636,-26.520432 3.48869,0.01608 3.48871,0.01608 10.99864,24.933305 c 6.04925,13.713318 11.33852,25.726051 11.75392,26.694961 l 0.75529,1.761641 h -3.31968 -3.31967 l -2.52815,-5.813575 -2.52815,-5.813561 -15.19847,-0.168345 -15.19844,-0.168355 -2.90132,6.296165 c -2.89292,6.27791 -2.90789,6.296141 -5.163,6.286542 -1.24393,-0.0052 -2.61255,-0.232462 -3.04138,-0.50481 z m 38.80358,-17.915522 c 0,-0.527237 -11.97377,-27.105392 -12.40605,-27.537661 -0.3748,-0.374795 -9.93035,20.085397 -12.46343,26.686461 -0.37063,0.965889 0.66075,1.054827 12.23236,1.054827 6.95041,0 12.63712,-0.09167 12.63712,-0.203627 z m 37.70962,6.820814 V 69.281078 L 368.6416,54.336338 c -5.63351,-8.219613 -10.45819,-15.298272 -10.72148,-15.730359 -0.36183,-0.593813 0.4265,-0.785618 3.22899,-0.785618 h 3.70773 l 8.63628,12.958549 c 4.74994,7.127201 8.85348,12.712943 9.11894,12.412754 0.26548,-0.300188 4.23889,-6.131536 8.82983,-12.958549 l 8.34716,-12.412754 h 3.37453 c 1.85599,0 3.37453,0.165166 3.37453,0.367028 0,0.20186 -4.06362,6.353248 -9.03028,13.66973 -4.96663,7.316495 -9.77461,14.402779 -10.68438,15.747281 -1.62444,2.40069 -1.65413,2.634708 -1.65413,13.041249 v 10.596685 h -3.14247 -3.14248 z M -59.966963,56.754381 c 0.08341,-7.475462 0.302437,-14.724362 0.486749,-16.108645 0.740284,-5.559889 6.465073,-12.412912 12.000959,-14.366083 1.360815,-0.480121 4.517991,-1.078197 7.01594,-1.329058 l 4.541723,-0.456111 v 4.451275 c 0,4.981728 0.253661,4.748286 -5.756161,5.297348 -3.730445,0.340821 -6.64347,2.404169 -8.126075,5.755852 -0.970464,2.193886 -1.165938,4.427082 -1.229567,14.046972 -0.04161,6.291105 -0.297371,11.301356 -0.568353,11.133873 -0.270981,-0.167467 -0.998557,0.254472 -1.616839,0.937668 -0.618279,0.683184 -1.521237,1.24216 -2.006565,1.24216 -0.485337,0 -0.707635,0.282823 -0.493996,0.628495 0.213637,0.345671 0.0038,0.628494 -0.465702,0.628494 -0.469774,0 -1.190657,0.336532 -1.601968,0.747839 -2.180421,2.180415 -2.335175,1.285314 -2.180145,-12.610079 z m 15.246456,-4.710871 c 0,-4.543627 0.294393,-8.570856 0.679082,-9.289662 0.778925,-1.455424 4.189943,-3.047938 6.528412,-3.047938 h 1.591421 v 7.332424 c 0,4.03284 -0.175079,7.157344 -0.389068,6.94336 -0.213984,-0.213982 -0.80243,0.02432 -1.307658,0.529527 -0.505221,0.505214 -1.222306,0.730875 -1.593521,0.501461 -0.371214,-0.229428 -0.496492,-0.128419 -0.278397,0.224472 0.218094,0.352877 -0.228276,1.17434 -0.991926,1.825459 -1.370771,1.168783 -1.376936,1.167854 -0.483911,-0.07309 0.497504,-0.691344 -0.143722,-0.282325 -1.424939,0.908911 l -2.329495,2.165887 z"
   id="path3528" /></svg>
