<?xml version="1.0" encoding="UTF-8" standalone="no"?>
<!-- Generator: Adobe Illustrator 28.0.0, SVG Export Plug-In . SVG Version: 6.00 Build 0)  -->

<svg
   version="1.1"
   id="Layer_1"
   x="0px"
   y="0px"
   viewBox="0 0 408.5 125"
   style="enable-background:new 0 0 408.5 125;"
   xml:space="preserve"
   xmlns="http://www.w3.org/2000/svg"
   xmlns:svg="http://www.w3.org/2000/svg"><defs
   id="defs19" />
<style
   type="text/css"
   id="style2">
	.st0{fill:#FFFFFF;}
	.st1{fill-rule:evenodd;clip-rule:evenodd;fill:#FFFFFF;}
</style>






<path
   style="fill:#ffffff;stroke-width:0.217332"
   d="M 21.611461,87.820753 C 14.702022,87.092831 7.6419822,84.877738 3.2294763,82.053403 L 2.3187806,81.47049 2.3183518,76.028297 2.3179231,70.586105 5.5870906,72.217339 c 5.2392114,2.614252 10.5273864,4.278673 16.1314664,5.077281 3.141071,0.447609 10.291367,0.332649 12.544502,-0.201689 3.635631,-0.862197 5.355619,-2.357556 5.355619,-4.656094 0,-1.819467 -1.072503,-3.136567 -3.044116,-3.73835 C 35.972619,68.514754 33.010827,68.161895 29.9928,67.914353 23.489285,67.38093 17.482624,66.713729 14.992951,66.248218 6.1684364,64.598229 1.8017312,60.19192 1.8017312,52.937358 c 0,-3.363557 0.5936958,-5.206641 2.5299777,-7.85409 2.4863982,-3.399622 7.5484071,-6.029168 13.5218551,-7.024155 6.070319,-1.011123 15.305775,-0.452295 22.134246,1.339315 2.603561,0.683108 7.296358,2.461533 7.936737,3.007778 0.202011,0.172315 0.268996,1.540277 0.268996,5.493428 v 5.263975 l -0.803894,-0.357306 c -7.156653,-3.180882 -14.763663,-4.788717 -22.6698,-4.791554 -7.757444,-0.0031 -11.409514,1.205653 -11.99125,3.96776 -0.243123,1.154355 0.21328,2.379511 1.214603,3.260442 1.523006,1.339887 1.121802,1.277191 19.137141,2.990936 4.946726,0.470561 7.710137,1.151591 10.74609,2.648332 3.521658,1.736198 5.61164,4.285686 6.420111,7.831657 0.504796,2.214043 0.33308,6.331976 -0.339001,8.129623 -2.197213,5.876959 -7.760293,9.512516 -16.512082,10.790891 -2.054207,0.300065 -9.575675,0.419015 -11.784,0.186363 z M 262.88673,87.618566 c -3.62512,-0.659959 -6.6805,-1.858858 -9.39622,-3.687011 -4.24441,-2.85719 -6.92345,-6.476226 -8.59109,-11.605417 -1.45122,-4.463425 -1.50198,-5.140569 -1.51175,-20.159947 l -0.009,-13.440314 h 5.57366 5.57366 l 0.11462,14.101311 c 0.10237,12.590482 0.15504,14.242143 0.49167,15.415711 1.38932,4.843724 4.58639,7.945452 9.29712,9.019853 1.93728,0.441853 5.67605,0.451807 7.67506,0.02047 4.52588,-0.976638 8.0676,-4.394588 9.48429,-9.152841 0.31249,-1.049568 0.3726,-2.988432 0.47449,-15.303162 l 0.11669,-14.101311 h 5.46648 5.46647 l -0.004,13.330155 c -0.003,9.563948 -0.0807,13.872982 -0.2751,15.251469 -1.15806,8.209983 -4.88381,14.086183 -11.18971,17.648186 -1.82312,1.029826 -5.38452,2.229266 -7.91593,2.666006 -2.53808,0.437884 -8.42845,0.43618 -10.84159,-0.0031 z m 57.98754,0.21398 c -7.41315,-0.897514 -13.05418,-2.640799 -17.95363,-5.548341 l -1.33983,-0.795106 v -5.448468 -5.448458 l 3.26918,1.616688 c 7.49428,3.706118 14.44564,5.406865 22.09125,5.404911 5.73223,-10e-4 9.03225,-0.775011 10.85417,-2.544303 0.93854,-0.911417 0.96451,-0.973375 1.04862,-2.503583 l 0.0862,-1.569027 -0.93715,-0.963213 c -1.27012,-1.305442 -2.41014,-1.616438 -7.36498,-2.009154 -7.62562,-0.604411 -14.44,-1.361894 -17.04254,-1.894434 -6.64469,-1.35966 -10.88657,-4.74593 -12.14122,-9.69225 -0.43522,-1.715801 -0.47953,-4.936812 -0.0906,-6.585118 1.93603,-8.204621 11.33194,-12.807703 24.9869,-12.241134 7.90101,0.327828 13.71608,1.534904 19.32481,4.011389 l 1.79079,0.790722 v 5.355536 5.355525 L 345.5555,52.27741 c -4.17363,-1.86054 -9.55739,-3.2995 -14.92743,-3.989756 -3.20706,-0.41223 -10.47265,-0.359332 -12.96947,0.09445 -2.5382,0.461272 -4.61641,1.472842 -5.22157,2.54158 -0.82329,1.453963 -0.38666,3.44959 0.98749,4.513486 1.48203,1.147394 1.32686,1.124452 18.91853,2.796551 5.05617,0.480589 8.71166,1.442264 11.46888,3.017192 1.93659,1.106186 4.05469,3.335596 4.8708,5.126781 0.90533,1.987012 1.18336,3.413337 1.17343,6.020336 -0.0291,7.635299 -5.37153,12.884676 -15.19794,14.933137 -1.95355,0.407243 -3.1523,0.491187 -7.67446,0.537435 -2.94762,0.03013 -5.69693,0.01392 -6.10959,-0.03606 z M 186.892,62.95462 V 39.040592 l 19.02548,0.06879 19.02548,0.06878 1.57104,0.495519 c 5.21175,1.643817 8.31119,4.727684 9.89829,9.848532 0.72908,2.352443 0.84644,6.676917 0.2473,9.112121 -1.33119,5.41047 -4.99996,9.203296 -10.67483,11.03571 l -1.74501,0.563473 6.30041,7.763184 c 4.60869,5.678678 6.30042,7.91291 6.30042,8.320848 v 0.557675 l -6.37425,-0.05839 -6.37425,-0.05839 -6.32727,-8.082503 -6.32726,-8.082502 -6.69912,-0.01475 -6.69912,-0.01475 v 8.152316 8.152326 h -5.57365 -5.57366 z m 36.39114,-2.939347 c 2.17819,-1.011913 2.94655,-2.496736 2.79794,-5.406917 -0.11031,-2.160252 -0.67116,-3.377989 -2.05462,-4.461139 -1.6261,-1.273128 -1.51203,-1.262395 -14.2503,-1.341247 l -11.73685,-0.07263 v 5.966503 5.966493 l 12.05841,-0.06369 12.05841,-0.06369 z M 58.26901,62.632018 V 38.615707 h 21.651535 21.651545 v 4.9575 4.957489 H 85.279836 68.987591 v 4.296492 4.296503 h 15.970688 15.970691 v 4.957489 4.9575 H 84.958279 68.987591 v 4.847319 4.84733 h 16.292245 16.292254 v 4.9575 4.957489 H 79.920545 58.26901 Z m 52.9498,0 V 38.615707 h 9.84844 c 7.56737,0 9.88622,0.06286 10.01157,0.271273 0.0897,0.149207 2.97753,9.196637 6.41738,20.105397 4.27228,13.548614 6.34756,19.834113 6.54865,19.834113 0.20211,0 2.23845,-6.301636 6.49759,-20.10761 l 6.20322,-20.10761 9.66027,0.05725 9.6603,0.05725 0.0545,23.961231 0.0546,23.961221 h -5.46744 -5.46742 V 67.022419 c 0,-18.442036 -0.0222,-19.621401 -0.36872,-19.552824 -0.28499,0.05642 -1.79675,4.512904 -6.65842,19.628289 l -6.28973,19.555307 -8.59258,-0.05756 -8.59254,-0.05756 -6.14066,-19.498055 c -4.75356,-15.09367 -6.22358,-19.514473 -6.50772,-19.570727 -0.34428,-0.06816 -0.36707,1.145274 -0.36707,19.553146 v 19.625806 h -5.25211 -5.2521 z m 245.72254,0.05507 0.0545,-23.961231 5.62726,-0.05871 5.62724,-0.05871 v 9.14749 9.14748 h 14.14615 14.14616 l 0.056,-9.088743 0.056,-9.088742 5.19851,-0.05902 5.19851,-0.05902 v 24.024145 24.024134 l -5.19851,-0.05902 -5.19851,-0.05902 -0.0559,-9.309071 -0.0559,-9.309072 h -14.14621 -14.1462 v 9.364151 9.364162 h -5.68178 -5.68182 z"
   id="path3867" /></svg>
