<?xml version="1.0" encoding="UTF-8" standalone="no"?>
<!-- Generator: Adobe Illustrator 28.0.0, SVG Export Plug-In . SVG Version: 6.00 Build 0)  -->

<svg
   version="1.1"
   id="Layer_1"
   x="0px"
   y="0px"
   viewBox="0 0 408.5 125"
   style="enable-background:new 0 0 408.5 125;"
   xml:space="preserve"
   xmlns="http://www.w3.org/2000/svg"
   xmlns:svg="http://www.w3.org/2000/svg"><defs
   id="defs19" />
<style
   type="text/css"
   id="style2">
	.st0{fill:#FFFFFF;}
	.st1{fill-rule:evenodd;clip-rule:evenodd;fill:#FFFFFF;}
</style>






<path
   style="fill:#000000;stroke-width:0.139911"
   id="path4162"
   d="" /><path
   style="fill:#000000;stroke-width:0.139911"
   id="path4142"
   d="" /><path
   style="fill:#000000;stroke-width:0.139911"
   id="path4104"
   d="" /><g
   id="g4796"
   style="fill:#ffffff;fill-opacity:1"
   transform="translate(2.0438617,1.6890438)"><path
     style="fill:#ffffff;fill-opacity:1;stroke-width:1.3313"
     d="m 176.72069,88.297498 c 0.96102,-0.384573 2.10926,-0.337276 2.55165,0.105106 0.44238,0.442379 -0.34392,0.75703 -1.74732,0.699224 -1.5509,-0.06388 -1.86635,-0.379341 -0.80433,-0.804326 z m 42.60152,0 c 0.96102,-0.384573 2.10926,-0.337276 2.55165,0.105106 0.44238,0.442379 -0.34392,0.75703 -1.74732,0.699224 -1.5509,-0.06388 -1.86635,-0.379341 -0.80433,-0.804326 z m 71.89006,0 c 0.96103,-0.384573 2.10927,-0.337276 2.55166,0.105106 0.44238,0.442379 -0.34393,0.75703 -1.74733,0.699224 -1.55089,-0.06388 -1.86634,-0.379341 -0.80433,-0.804326 z m 93.19083,0 c 0.96102,-0.384573 2.10928,-0.337276 2.55165,0.105106 0.44238,0.442379 -0.34392,0.75703 -1.74732,0.699224 -1.5509,-0.06388 -1.86635,-0.379341 -0.80433,-0.804326 z M 249.22296,79.887843 c 0,-3.294961 0.25963,-4.6429 0.57695,-2.995419 0.31732,1.64748 0.31732,4.343358 0,5.990839 -0.31732,1.64748 -0.57695,0.299542 -0.57695,-2.99542 z m -50.52579,-5.32519 c 0,-4.759389 0.24163,-6.706411 0.53696,-4.326717 0.2953,2.379694 0.2953,6.27374 0,8.653434 -0.29533,2.379694 -0.53696,0.432672 -0.53696,-4.326717 z M 22.952323,72.565707 c 0.0075,-4.393282 0.256009,-6.030034 0.552304,-3.637226 0.296297,2.392807 0.290182,5.987311 -0.01359,7.987785 -0.303761,2.000474 -0.546185,0.04272 -0.538712,-4.350559 z m -12.56402,-6.989312 c -1.6559616,-2.111513 -1.6088732,-2.158601 0.502639,-0.502638 1.281374,1.004922 2.32977,2.053318 2.32977,2.32977 0,1.095703 -1.093242,0.390474 -2.832409,-1.827132 z M 249.3529,49.268 c 0,-7.688243 0.22003,-10.833434 0.48896,-6.989312 0.26892,3.844122 0.26892,10.134502 0,13.978624 -0.26893,3.844122 -0.48896,0.698931 -0.48896,-6.989312 z m -140.17367,1.886005 c 0.0639,-1.550886 0.37935,-1.866346 0.80433,-0.804326 0.38457,0.961031 0.33728,2.109275 -0.10511,2.551654 -0.44238,0.442378 -0.75703,-0.343919 -0.69922,-1.747328 z M 60.977609,16.318386 c -1.655963,-2.111512 -1.608875,-2.1586 0.502638,-0.502638 1.281374,1.004922 2.32977,2.053319 2.32977,2.32977 0,1.095704 -1.093243,0.390474 -2.832408,-1.827132 z"
     id="path4812" /><path
     style="fill:#ffffff;fill-opacity:1;stroke-width:1.3313"
     d="m 137.46823,67.240517 c 0.005,-5.125496 0.24653,-7.059156 0.53473,-4.297024 0.28819,2.762133 0.28335,6.955721 -0.0106,9.319083 -0.29419,2.363363 -0.52999,0.103436 -0.52408,-5.022059 z m -0.0743,-21.96641 c 0,-3.294961 0.25963,-4.6429 0.57695,-2.995419 0.31732,1.647481 0.31732,4.343358 0,5.990839 -0.31732,1.647481 -0.57695,0.299542 -0.57695,-2.99542 z"
     id="path4810" /><path
     style="fill:#ffffff;fill-opacity:1;stroke-width:1.3313"
     d="m 357.22074,53.927541 c 0.003,-10.250991 0.21105,-14.268596 0.4644,-8.928014 0.25335,5.340584 0.25164,13.727759 -0.004,18.638166 -0.2552,4.910408 -0.46248,0.540839 -0.46041,-9.710152 z m 7.72205,14.644273 c 0.0272,-2.196641 0.3255,-2.934094 0.66304,-1.638785 0.33754,1.295309 0.31534,3.092561 -0.0494,3.993893 -0.36462,0.901331 -0.64078,-0.158467 -0.61365,-2.355108 z"
     id="path4808" /><path
     style="fill:#ffffff;fill-opacity:1;stroke-width:1.3313"
     d="m 304.10922,83.881736 c -0.45254,-0.732214 -0.18836,-1.331298 0.58707,-1.331298 0.77543,0 1.40987,0.599084 1.40987,1.331298 0,0.732213 -0.26418,1.331297 -0.58707,1.331297 -0.3229,0 -0.95734,-0.599084 -1.40987,-1.331297 z M 89.530784,71.900058 c 0,-4.759389 0.241623,-6.706411 0.536941,-4.326717 0.295316,2.379694 0.295316,6.27374 0,8.653434 -0.295318,2.379694 -0.536941,0.432672 -0.536941,-4.326717 z m 76.894246,-3.439185 c 0.0639,-1.550886 0.37934,-1.866346 0.80432,-0.804326 0.38457,0.961031 0.33728,2.109275 -0.10504,2.551654 -0.44239,0.442378 -0.75703,-0.343919 -0.69923,-1.747328 z"
     id="path4806" /><path
     style="fill:#ffffff;fill-opacity:1;stroke-width:1.3313"
     d="M 8.0006248,83.105146 C 8.0645058,81.55426 8.3799651,81.2388 8.8049503,82.30082 9.189523,83.26185 9.1422269,84.410094 8.6998483,84.852474 8.2574692,85.294852 7.9428188,84.508555 8.0006248,83.105146 Z M 219.32221,81.64101 c 0.96102,-0.384573 2.10926,-0.337276 2.55165,0.105106 0.44238,0.44238 -0.34392,0.757031 -1.74732,0.699224 -1.5509,-0.06387 -1.86635,-0.379341 -0.80433,-0.804326 z M 378.9947,70.91857 c 3.84412,-0.268925 10.1345,-0.268925 13.97862,0 3.84413,0.268926 0.69894,0.488954 -6.98931,0.488954 -7.68824,0 -10.83343,-0.220028 -6.98931,-0.488954 z"
     id="path4804" /><path
     style="fill:#ffffff;fill-opacity:1;stroke-width:1.3313"
     d="m 54.849096,98.934729 c 1.295309,-0.337541 3.092561,-0.315343 3.993893,0.04932 0.901331,0.364679 -0.158467,0.64085 -2.355108,0.613718 -2.196641,-0.02713 -2.934094,-0.3255 -1.638785,-0.663042 z M 4.0067323,72.454766 C 4.0706133,70.90388 4.3860726,70.58842 4.8110578,71.65044 5.1956305,72.61147 5.1483344,73.759714 4.7059558,74.202094 4.2635767,74.644472 3.9489263,73.858174 4.0067323,72.454766 Z M 372.20729,65.576395 c -0.34149,-0.549161 3.0679,-0.831649 7.57639,-0.627752 14.68156,0.663972 16.41833,1.195815 4.61478,1.413168 -6.36365,0.117181 -11.84968,-0.236256 -12.19117,-0.785416 z M 383.0718,55.01506 c 0.96102,-0.384574 2.10928,-0.337277 2.55166,0.105106 0.44237,0.442379 -0.34393,0.75703 -1.74733,0.699224 -1.5509,-0.06388 -1.86635,-0.379342 -0.80433,-0.804326 z M 146.70862,51.008018 c 1.29531,-0.337541 3.09257,-0.315343 3.99389,0.04932 0.90133,0.364673 -0.15846,0.640844 -2.3551,0.613713 -2.19664,-0.02713 -2.9341,-0.3255 -1.63879,-0.663043 z M 44.922234,9.7509436 c 0.96103,-0.3845727 2.109274,-0.3372767 2.551654,0.1051019 0.442378,0.4423795 -0.343919,0.7570295 -1.747328,0.6992235 -1.550886,-0.06388 -1.866346,-0.37934 -0.804326,-0.8043254 z"
     id="path4802" /><path
     style="fill:#ffffff;fill-opacity:1;stroke-width:1.3313"
     d="m 66.222994,113.59215 c 0.96103,-0.38457 2.109274,-0.33728 2.551654,0.10511 0.442378,0.44238 -0.343919,0.75703 -1.747328,0.69922 -1.550886,-0.0639 -1.866346,-0.37934 -0.804326,-0.80433 z m -39.85912,-8.07683 c -1.655963,-2.11151 -1.608875,-2.1586 0.502638,-0.50264 2.217606,1.73917 2.922835,2.83241 1.827132,2.83241 -0.276452,0 -1.324848,-1.0484 -2.32977,-2.32977 z M 82.448182,91.366883 c 0,-0.276452 1.048397,-1.324849 2.329771,-2.329771 2.111512,-1.655962 2.1586,-1.608874 0.502638,0.502638 -1.739166,2.217606 -2.832409,2.922836 -2.832409,1.827133 z M 350.14409,68.460873 c 0.0639,-1.550886 0.37934,-1.866346 0.80431,-0.804326 0.38457,0.961031 0.33729,2.109275 -0.10504,2.551654 -0.44237,0.442378 -0.75703,-0.343919 -0.69922,-1.747328 z M 94.42986,58.587083 c -1.199888,-0.775428 -1.364092,-1.298662 -0.411394,-1.310912 0.872055,-0.01121 1.955807,0.578698 2.40834,1.310912 1.021511,1.652839 0.56064,1.652839 -1.996946,0 z M 78.204672,57.677655 c 0.96103,-0.384574 2.109274,-0.337277 2.551654,0.105106 0.442378,0.442379 -0.34392,0.75703 -1.747328,0.699224 -1.550886,-0.06388 -1.866346,-0.379342 -0.804326,-0.804326 z"
     id="path4800" /><path
     style="fill:#ffffff;fill-opacity:1;stroke-width:1.3313"
     d="m 52.493989,114.50204 c -1.464428,-0.62954 -4.495116,-1.18672 -6.734861,-1.23819 -2.239747,-0.0515 -5.235167,-0.97314 -6.656488,-2.04818 -1.421322,-1.07503 -3.611773,-1.97365 -4.867668,-1.99694 -1.255896,-0.0233 -4.251315,-1.73852 -6.656488,-3.81162 -2.405172,-2.07311 -5.42662,-4.15309 -6.714329,-4.62218 -1.287709,-0.4691 -3.08496,-2.488713 -3.993893,-4.488041 -0.908931,-1.999328 -3.000542,-4.98433 -4.648023,-6.633336 -1.64748,-1.649008 -2.9954192,-4.473212 -2.9954192,-6.276011 0,-1.802799 -0.6828206,-3.505423 -1.5173791,-3.783609 -3.9642188,-1.321406 -4.2236843,-29.066516 -0.3299436,-35.28146 1.0160275,-1.621718 1.8473227,-3.811602 1.8473227,-4.866406 0,-1.054804 2.0967932,-4.427526 4.6595412,-7.494935 2.562748,-3.067409 4.659541,-6.132354 4.659541,-6.810987 0,-0.678635 1.619001,-1.969892 3.59778,-2.869462 1.978778,-0.899568 4.946967,-2.983519 6.595973,-4.630999 1.649008,-1.647481 4.326193,-2.99542 5.949301,-2.99542 1.623107,0 4.036918,-0.982647 5.364023,-2.18366 3.4485,-3.1208496 30.548346,-3.2803643 34.038602,-0.200357 1.301169,1.148228 4.312041,2.50134 6.690826,3.006916 2.378784,0.505576 5.074661,1.930602 5.990839,3.166723 0.916176,1.236122 3.339996,3.31681 5.386266,4.623751 2.046269,1.306942 4.283842,3.857989 4.972385,5.668993 0.688542,1.811002 2.130535,3.629899 3.204433,4.041991 1.07389,0.412091 2.65867,2.942846 3.52172,5.623898 0.86305,2.681054 2.19449,5.660773 2.95874,6.621601 4.00414,5.034024 2.43187,36.195021 -1.82626,36.195021 -0.68287,0 -1.24159,1.524941 -1.24159,3.388758 0,1.863816 -1.34962,4.738375 -2.99915,6.387909 -1.649534,1.649533 -4.080777,4.64992 -5.402761,6.667524 -1.321985,2.017604 -3.4171,4.040848 -4.655808,4.496098 -1.23871,0.45525 -3.571533,2.2203 -5.184051,3.92234 -1.612518,1.70204 -4.33835,3.09462 -6.057404,3.09462 -1.719054,0 -3.821841,0.69629 -4.672861,1.54731 -0.851018,0.85102 -4.715109,1.99286 -8.586869,2.53742 -3.871758,0.54457 -7.938186,1.30409 -9.036506,1.68783 -1.098321,0.38374 -3.195114,0.18263 -4.659541,-0.44691 z m 7.933609,-5.23799 c 0.422736,-0.68401 2.774625,-0.91811 5.226419,-0.52024 3.367848,0.54653 4.908055,0.11821 6.299269,-1.75178 1.081329,-1.45346 3.490093,-2.47518 5.835355,-2.47518 2.818224,0 4.366415,-0.84849 5.259396,-2.88242 0.696028,-1.58532 2.926618,-3.214632 4.956867,-3.620682 2.497993,-0.499599 3.959007,-1.804652 4.519247,-4.036827 0.455336,-1.814204 2.328281,-4.281653 4.162101,-5.483218 2.36986,-1.552792 3.166827,-3.060309 2.755472,-5.212172 -0.382657,-2.001739 0.302002,-3.577547 2.020736,-4.650913 2.03902,-1.273386 2.44112,-2.599267 1.86499,-6.149534 -0.40397,-2.489372 -0.17485,-4.872007 0.50915,-5.294743 1.46207,-0.903608 1.67511,-7.724019 0.2847,-9.114431 -0.52742,-0.527416 -0.79002,-2.919587 -0.58356,-5.315936 0.23325,-2.707277 -0.41182,-5.010315 -1.70366,-6.082443 -1.14346,-0.948994 -2.07903,-3.462185 -2.07903,-5.584869 0,-2.8248 -0.892226,-4.265948 -3.328244,-5.375872 -1.830534,-0.834048 -3.328244,-2.584484 -3.328244,-3.889861 0,-2.521431 -5.062941,-6.837502 -6.777597,-5.777786 -0.56017,0.346204 -1.401737,-0.57804 -1.870149,-2.053878 -0.992096,-3.125817 -5.420755,-5.856093 -7.4573,-4.597438 -0.773162,0.47784 -2.58137,-0.393082 -4.018241,-1.935382 -2.947367,-3.163627 -4.239976,-3.396325 -7.921481,-1.426043 -1.727329,0.924438 -2.575074,0.932788 -2.575074,0.02536 0,-2.58904 -6.632026,-3.169606 -9.240559,-0.808916 -1.625925,1.471443 -2.777851,1.75432 -3.353169,0.823436 -1.333609,-2.157826 -5.577843,-1.694431 -8.163593,0.891319 -1.270137,1.270137 -3.639273,2.135061 -5.264746,1.922053 -1.895877,-0.248443 -3.91509,0.832755 -5.632312,3.015849 -1.4723,1.871726 -3.519268,3.403137 -4.548819,3.403137 -2.796582,0 -5.067025,2.803693 -5.067025,6.257099 0,2.138864 -0.775667,3.061984 -2.572881,3.061984 -2.45546,0 -4.930442,4.247444 -4.335518,7.440401 0.148549,0.79726 -0.932169,2.537592 -2.401595,3.867403 -2.9228793,2.64517 -3.4518765,6.017649 -1.283963,8.185563 0.962762,0.962761 0.758922,1.909576 -0.6656489,3.091864 -2.6100897,2.166182 -2.6305355,5.935963 -0.046211,8.520288 1.2443309,1.244329 1.4973129,2.32226 0.6656489,2.836256 -2.1034083,1.299979 -1.5734644,5.765196 0.988261,8.326922 1.281374,1.281374 2.147392,3.608579 1.924485,5.171566 -0.255509,1.791586 0.851474,3.830363 2.99542,5.516791 1.870388,1.471247 3.400705,3.62336 3.400705,4.782474 0,2.554961 5.987585,6.733297 7.92924,5.533288 0.790718,-0.488691 1.389842,0.302482 1.389842,1.835354 0,2.966627 4.516697,6.045717 7.301082,4.977247 0.972308,-0.37311 2.815598,0.47939 4.096199,1.89444 2.564756,2.83402 5.951419,3.32976 8.096086,1.18509 0.962761,-0.96276 1.909576,-0.75892 3.091864,0.66565 1.873106,2.25695 7.430014,2.77737 8.646085,0.80973 z M 40.176382,96.099393 c -12.43061,-4.429252 -16.30529,-10.321812 -16.30529,-24.79686 0,-8.138597 -0.204294,-8.722105 -3.328243,-9.506166 -4.222682,-1.059826 -4.263238,-2.685969 -0.0931,-3.732608 1.779332,-0.446585 4.175668,-1.75249 5.32519,-2.902012 1.149526,-1.149522 2.090044,-1.433336 2.090044,-0.630699 0,0.802638 1.536935,2.043683 3.41541,2.757878 3.495113,1.328839 8.150058,-0.142808 10.210003,-3.227861 0.697111,-1.044019 0.983943,-1.048154 0.998473,-0.01439 0.01118,0.797736 1.577521,2.159906 3.480687,3.027047 2.779593,1.266467 4.242623,1.186346 7.437143,-0.407291 3.545301,-1.76863 4.320291,-1.758873 7.141897,0.08992 2.847093,1.865488 3.574883,1.869376 7.244527,0.03871 3.690962,-1.841295 4.440455,-1.82793 7.869964,0.140339 3.507543,2.013052 4.038335,2.013055 7.110602,2.8e-5 3.073615,-2.01391 3.67897,-2.012759 8.153786,0.01548 5.635631,2.554398 6.083099,3.93445 1.637483,5.050229 -3.003917,0.753935 -3.224163,1.469858 -3.661069,11.900581 -0.524664,12.5259 -2.461466,15.794696 -12.446547,21.006384 -7.657298,3.996705 -26.656783,4.620554 -36.280962,1.191283 z M 36.409536,85.736248 c 3.107899,-1.192614 2.663604,-6.823245 -0.620653,-7.865628 -4.861798,-1.543075 -8.48356,3.587638 -4.995044,7.076154 1.813389,1.813388 2.643357,1.930068 5.615697,0.789474 z m 46.539036,-2.162356 c 1.11655,-1.773026 0.942921,-2.813295 -0.752549,-4.508765 -3.988178,-3.988176 -9.938297,1.224086 -6.342872,5.55631 2.070024,2.494224 5.151515,2.039283 7.095421,-1.047545 z m 62.217128,2.443901 c -5.05565,-2.802135 -6.70469,-7.269027 -6.75584,-18.300129 -0.0451,-9.72411 -0.19412,-10.210111 -3.37543,-11.008568 -1.83053,-0.459435 -3.32824,-1.722549 -3.32824,-2.806919 0,-1.215489 1.27637,-1.971582 3.32824,-1.971582 3.11246,0 3.32825,-0.437593 3.32825,-6.749081 0,-6.237564 0.22702,-6.716838 2.99542,-6.323663 2.55619,0.363037 3.05491,1.352676 3.40118,6.749081 0.38047,5.929401 0.6364,6.323663 4.10483,6.323663 2.03449,0 4.09326,0.394192 4.57506,0.875982 1.51511,1.515107 -1.95023,4.449208 -5.25477,4.449208 -3.06225,0 -3.16524,0.337866 -3.16524,10.384121 0,11.058183 1.14708,13.579235 6.17853,13.579235 3.75498,0 5.19024,2.189834 3.09216,4.717859 -1.9733,2.377682 -4.93279,2.403889 -9.12415,0.0808 z m 24.21428,-0.672923 c -5.65667,-3.552514 -8.38525,-9.19052 -8.38525,-17.326269 0,-5.563549 0.68593,-7.457501 4.11551,-11.363573 4.98644,-5.679256 11.90043,-7.896436 18.73728,-6.008689 11.23044,3.100873 14.87804,9.935359 14.17776,26.564791 -0.35346,8.393603 -0.80328,10.043801 -2.844,10.433344 -1.569,0.299501 -2.68042,-0.51735 -3.15069,-2.315652 -0.87434,-3.343516 -1.48672,-3.426877 -4.58388,-0.623994 -3.81787,3.45512 -13.06278,3.782637 -18.06673,0.640042 z m 15.60476,-4.805157 c 4.90899,-2.538538 6.62984,-5.747881 6.62984,-12.364486 0,-10.936064 -12.43399,-16.314501 -20.89371,-9.037765 -6.85174,5.893635 -4.41117,18.608457 4.25249,22.154425 3.93148,1.609123 5.70243,1.476068 10.01138,-0.752174 z m 26.72697,5.596652 c -5.5763,-1.955179 -8.12013,-5.445068 -5.71912,-7.846079 1.32515,-1.325144 2.14529,-1.332068 3.96397,-0.03347 6.72508,4.801955 16.83204,5.189313 18.55053,0.710968 1.37645,-3.586944 -1.539,-6.221582 -9.49983,-8.584836 -9.70538,-2.881143 -13.00216,-5.768565 -12.48018,-10.930568 0.58148,-5.750529 6.14356,-9.385367 14.17621,-9.264188 6.74372,0.101738 13.51281,3.346051 13.51281,6.476481 0,2.892411 -2.58191,3.610683 -5.71657,1.59032 -7.24421,-4.669068 -16.12635,-3.512263 -15.34368,1.998351 0.32204,2.267373 1.87798,3.416287 6.41597,4.737582 10.55584,3.073464 14.53387,5.340046 15.39518,8.771784 2.62097,10.442739 -9.845,17.07561 -23.25529,12.373649 z m 32.15629,0.851731 c -1.24831,-0.499324 -1.66412,-6.891682 -1.66412,-25.5831 0,-25.058932 0.66255,-28.796491 4.82178,-27.200449 1.41148,0.541637 1.83471,4.233293 1.83471,16.00326 v 15.299212 l 8.08627,-7.121037 c 11.08889,-9.765228 11.5135,-10.020189 13.45472,-8.078976 1.30554,1.305546 0.18194,3.126081 -5.44748,8.826305 -7.89261,7.991887 -7.93087,7.265708 0.9347,17.743537 5.69371,6.729139 6.68603,10.99878 2.55628,10.99878 -0.98991,0 -4.94862,-3.929342 -8.79712,-8.731871 -8.13602,-10.152896 -10.40658,-9.930928 -11.05438,1.080657 -0.39112,6.64834 -1.40077,8.093518 -4.72536,6.763682 z m 42.2687,-0.04931 c -1.09832,-0.399652 -3.63058,-2.248423 -5.62723,-4.108382 -10.75747,-10.020941 -6.3394,-28.291865 7.75921,-32.088227 10.15635,-2.73482 20.35949,2.998478 23.13804,13.001613 2.06023,7.417047 1.71635,20.844104 -0.58271,22.752142 -2.23005,1.850788 -4.71785,0.781858 -4.71785,-2.027116 0,-2.48717 -0.4258,-2.431218 -5.62583,0.739242 -4.18363,2.550759 -10.12113,3.267188 -14.34363,1.730728 z m 15.44305,-8.914758 c 5.76397,-5.763969 6.13756,-11.992724 1.07983,-18.003503 -2.86972,-3.410461 -4.4097,-4.096036 -9.20074,-4.096036 -4.79105,0 -6.33103,0.685575 -9.20075,4.096036 -5.83558,6.935207 -4.04534,16.628738 3.87556,20.9847 4.73344,2.603074 8.75304,1.711871 13.4461,-2.981197 z m 27.82412,7.374642 c -6.58477,-4.067376 -9.00121,-7.725072 -9.66458,-14.629046 -0.43594,-4.536827 0.0931,-7.991351 1.76237,-11.509191 4.52572,-9.537259 18.21335,-12.266345 26.03219,-5.190391 2.43158,2.200552 2.50513,1.972686 2.50513,-7.76094 0,-7.412176 0.53563,-10.472592 2.05337,-11.732201 4.05132,-3.362297 4.80856,0.407843 4.36648,21.739873 -0.41338,19.947507 -0.55029,20.833185 -3.75726,24.305001 -6.60129,7.146476 -16.25656,9.126166 -23.2977,4.776895 z m 16.38774,-5.851555 c 3.92393,-3.25395 5.84429,-10.130492 4.21105,-15.079228 -1.88109,-5.699797 -5.85701,-8.543398 -11.94536,-8.543398 -6.12526,0 -10.0661,2.849183 -11.98566,8.665483 -2.94813,8.932936 5.05135,18.933242 13.85572,17.321331 2.12686,-0.389384 4.76577,-1.453271 5.86425,-2.364188 z m 31.53897,6.521735 c -2.19664,-1.016201 -5.4916,-3.469994 -7.32214,-5.452874 -2.82263,-3.057548 -3.32824,-4.890247 -3.32824,-12.063999 0,-7.554386 0.42024,-8.89739 3.93048,-12.561304 9.94832,-10.383804 26.91484,-6.529671 29.9103,6.794451 1.69786,7.552258 1.26243,7.783637 -14.6479,7.783637 -7.99334,0 -14.53334,0.271354 -14.53334,0.603008 0,2.45545 3.52858,7.322253 6.64251,9.161699 4.5946,2.714092 8.03916,2.79333 13.95619,0.321038 3.81574,-1.59432 4.77615,-1.608489 6.03717,-0.08906 3.81287,4.59424 -12.95066,9.062946 -20.64503,5.503408 z m 17.97251,-21.31139 c 0,-2.657281 -4.97399,-8.542079 -8.04342,-9.516276 -4.28905,-1.361297 -11.76855,1.842279 -13.89304,5.950594 -1.05639,2.04282 -1.5452,4.089715 -1.08626,4.548655 0.45894,0.458939 5.82679,0.834436 11.92858,0.834436 8.48684,0 11.09414,-0.427122 11.09414,-1.817409 z"
     id="path4798" /></g></svg>
