<?xml version="1.0" encoding="UTF-8" standalone="no"?>
<!-- Generator: Adobe Illustrator 28.0.0, SVG Export Plug-In . SVG Version: 6.00 Build 0)  -->

<svg
   version="1.1"
   id="Layer_1"
   x="0px"
   y="0px"
   viewBox="0 0 408.5 125"
   style="enable-background:new 0 0 408.5 125;"
   xml:space="preserve"
   xmlns="http://www.w3.org/2000/svg"
   xmlns:svg="http://www.w3.org/2000/svg"><defs
   id="defs19" />
<style
   type="text/css"
   id="style2">
	.st0{fill:#FFFFFF;}
	.st1{fill-rule:evenodd;clip-rule:evenodd;fill:#FFFFFF;}
</style>






<path
   style="fill:#000000;stroke-width:0.139911"
   id="path4162"
   d="" /><path
   style="fill:#000000;stroke-width:0.139911"
   id="path4142"
   d="" /><path
   style="fill:#000000;stroke-width:0.139911"
   id="path4104"
   d="" /><g
   id="g5107"
   transform="matrix(1.0114229,0,0,1.0114229,-3.4829253,0.61172772)"
   style="fill:#ffffff;fill-opacity:1"><path
     style="fill:#ffffff;fill-opacity:1;stroke-width:0.172103"
     d="m 52.86491,110.67869 c 0.124236,-0.0497 0.272676,-0.0436 0.329864,0.0136 0.05719,0.0572 -0.04446,0.0979 -0.225884,0.0904 -0.200491,-0.008 -0.241271,-0.049 -0.10398,-0.10398 z m 7.228307,0 c 0.124236,-0.0497 0.272676,-0.0436 0.329864,0.0136 0.05719,0.0572 -0.04446,0.0979 -0.225885,0.0904 -0.200491,-0.008 -0.24127,-0.049 -0.103979,-0.10398 z m 311.236683,-0.002 c 0.16565,-0.0433 0.43671,-0.0433 0.60236,0 0.16565,0.0433 0.0301,0.0787 -0.30118,0.0787 -0.33129,0 -0.46682,-0.0354 -0.30118,-0.0787 z m 3.1839,0.005 c 0.11832,-0.0477 0.31194,-0.0477 0.43026,0 0.11832,0.0477 0.0215,0.0868 -0.21513,0.0868 -0.23664,0 -0.33345,-0.0391 -0.21513,-0.0868 z m -44.5638,-1.0362 c 0.12424,-0.0497 0.27268,-0.0436 0.32987,0.0136 0.0572,0.0572 -0.0445,0.0979 -0.22589,0.0904 -0.2005,-0.008 -0.24127,-0.0491 -0.10398,-0.10399 z m -114.6849,-5.26064 -0.50548,-0.55933 0.55933,0.50548 c 0.30764,0.27802 0.55934,0.52972 0.55934,0.55934 0,0.13296 -0.14201,0.0158 -0.61319,-0.50549 z m 20.70616,-4.728239 c 0.30763,-0.03817 0.81103,-0.03817 1.11866,0 0.30764,0.03817 0.0559,0.06941 -0.55933,0.06941 -0.61527,0 -0.86697,-0.03124 -0.55933,-0.06941 z m 137.07967,0.0017 c 0.2603,-0.03943 0.68626,-0.03943 0.94656,0 0.26031,0.03945 0.0473,0.0717 -0.47328,0.0717 -0.52061,0 -0.73359,-0.03225 -0.47328,-0.0717 z M 165.76418,99.147668 c 0.12424,-0.04972 0.27268,-0.04361 0.32987,0.0136 0.0572,0.05719 -0.0445,0.09788 -0.22589,0.09041 -0.2005,-0.0083 -0.24127,-0.04905 -0.10398,-0.103985 z m 3.09784,0 c 0.12424,-0.04972 0.27268,-0.04361 0.32987,0.0136 0.0572,0.05719 -0.0445,0.09788 -0.22588,0.09041 -0.2005,-0.0083 -0.24127,-0.04905 -0.10399,-0.103985 z m 13.11206,-5.303512 c 0.22231,-0.236641 0.44293,-0.430256 0.49026,-0.430256 0.0473,0 -0.0958,0.193615 -0.31815,0.430256 -0.22231,0.236641 -0.44293,0.430257 -0.49025,0.430257 -0.0473,0 0.0958,-0.193616 0.31814,-0.430257 z M 54.585936,92.435824 c 0.124235,-0.04972 0.272676,-0.04361 0.329864,0.0136 0.05719,0.05719 -0.04446,0.09788 -0.225885,0.09041 -0.200491,-0.0083 -0.241271,-0.04905 -0.103979,-0.103985 z m 3.786256,0 c 0.124235,-0.04972 0.272676,-0.04361 0.329863,0.0136 0.05719,0.05719 -0.04446,0.09788 -0.225884,0.09041 -0.200491,-0.0083 -0.241271,-0.04905 -0.103979,-0.103985 z M 198.3374,86.257308 c 0.008,-0.200499 0.049,-0.24127 0.10399,-0.103984 0.0497,0.124241 0.0436,0.272679 -0.0136,0.329869 -0.0572,0.05719 -0.0979,-0.04447 -0.0904,-0.225885 z m -12.39138,-1.204717 c 0.008,-0.2005 0.049,-0.241271 0.10399,-0.103985 0.0497,0.124241 0.0436,0.272679 -0.0136,0.329869 -0.0572,0.05719 -0.0979,-0.04447 -0.0904,-0.225884 z m 67.48416,-4.288228 c 0.003,-0.283969 0.0421,-0.379297 0.0857,-0.211858 0.0436,0.167456 0.0408,0.399794 -0.006,0.516308 -0.0471,0.11653 -0.0828,-0.02048 -0.0793,-0.30445 z m 87.06392,-1.563259 c 0.008,-0.200499 0.0491,-0.24127 0.10399,-0.103984 0.0497,0.124241 0.0436,0.272679 -0.0136,0.329869 -0.0572,0.05719 -0.0979,-0.04447 -0.0904,-0.225885 z m 62.98953,-4.818871 c 0.008,-0.200499 0.0491,-0.24127 0.10399,-0.103984 0.0497,0.124241 0.0436,0.272679 -0.0136,0.329869 -0.0572,0.05719 -0.0979,-0.04447 -0.0904,-0.225885 z M 340.4941,73.52172 c 0.008,-0.200499 0.0491,-0.24127 0.10399,-0.103984 0.0497,0.124241 0.0436,0.272679 -0.0136,0.329869 -0.0572,0.05719 -0.0979,-0.04447 -0.0904,-0.225885 z M 103.2076,65.103032 c 6.8e-4,-0.662595 0.0319,-0.912574 0.0691,-0.555495 0.0373,0.357078 0.0366,0.899201 -0.001,1.204717 -0.038,0.305517 -0.0685,0.01342 -0.0677,-0.649222 z M 25.718566,64.400286 c 0.0083,-0.2005 0.04904,-0.241271 0.103977,-0.103985 0.04972,0.124241 0.0436,0.27268 -0.01358,0.329869 -0.05719,0.05719 -0.09786,-0.04447 -0.09039,-0.225884 z M 6.4430813,58.720897 c 0.00826,-0.200491 0.049039,-0.241271 0.1039775,-0.103979 0.049715,0.124235 0.043602,0.272675 -0.013579,0.329863 -0.057188,0.05719 -0.097864,-0.04446 -0.090392,-0.225884 z M 300.93997,55.250454 c 1.58549,-0.0284 4.17994,-0.0284 5.76543,0 1.5855,0.0284 0.28827,0.05164 -2.88272,0.05164 -3.17099,0 -4.46821,-0.02324 -2.88271,-0.05164 z m 24.53641,-1.63e-4 c 2.20725,-0.02726 5.76978,-0.02723 7.91672,6.5e-5 2.14695,0.02729 0.341,0.04959 -4.01319,0.04956 -4.35419,-3.6e-5 -6.11078,-0.02237 -3.90353,-0.04962 z m 46.36983,-2.227021 c 0.16565,-0.04329 0.43671,-0.04329 0.60236,0 0.16565,0.04329 0.0301,0.07871 -0.30118,0.07871 -0.3313,0 -0.46683,-0.03542 -0.30118,-0.07871 z m 21.27573,-3.624595 c -0.21406,-0.272965 -0.20798,-0.279052 0.065,-0.06498 0.28667,0.22483 0.37785,0.366159 0.23619,0.366159 -0.0357,0 -0.17126,-0.135531 -0.30118,-0.30118 z m -239.90201,-4.130461 -0.41723,-0.473282 0.47329,0.41723 c 0.2603,0.229478 0.47328,0.442455 0.47328,0.473282 0,0.134977 -0.13937,0.02512 -0.52934,-0.41723 z M 34.138003,39.459754 c 0.321105,-0.331298 0.622551,-0.602359 0.66988,-0.602359 0.04733,0 -0.176672,0.271061 -0.497778,0.602359 -0.321105,0.331297 -0.622551,0.602358 -0.66988,0.602358 -0.04733,0 0.176672,-0.271061 0.497778,-0.602358 z M 83.187227,36.53401 c 0.222313,-0.236641 0.442928,-0.430256 0.490256,-0.430256 0.04733,0 -0.09584,0.193615 -0.318154,0.430256 -0.222313,0.236641 -0.442928,0.430257 -0.490256,0.430257 -0.04733,0 0.09584,-0.193616 0.318154,-0.430257 z m 5.163076,-4.958775 c 0,-0.02962 0.2517,-0.281318 0.559333,-0.559333 l 0.559333,-0.50548 -0.50548,0.559333 c -0.471179,0.521378 -0.613186,0.63844 -0.613186,0.50548 z M 55.607795,30.470458 c 0.402289,-0.03623 1.060582,-0.03623 1.462871,0 0.40229,0.03623 0.07314,0.06588 -0.731436,0.06588 -0.804579,0 -1.133725,-0.02965 -0.731435,-0.06588 z M 165.07577,23.939011 c 0.12424,-0.04971 0.27268,-0.0436 0.32987,0.01358 0.0572,0.05719 -0.0445,0.09786 -0.22589,0.09039 -0.2005,-0.0083 -0.24127,-0.04904 -0.10398,-0.103978 z m -21.48055,-2.184747 c 0,-0.03574 0.13553,-0.171268 0.30118,-0.301179 0.27297,-0.214073 0.27904,-0.207986 0.065,0.06498 -0.22483,0.28668 -0.36616,0.377847 -0.36616,0.2362 z m 1.20472,-1.204718 c 0,-0.03574 0.13553,-0.171267 0.30118,-0.301179 0.27297,-0.214073 0.27904,-0.207986 0.065,0.06498 -0.22483,0.28668 -0.36616,0.377848 -0.36616,0.2362 z M 52.86491,12.408141 c 0.124236,-0.04972 0.272676,-0.0436 0.329864,0.01358 0.05719,0.05719 -0.04446,0.09786 -0.225884,0.09039 -0.200491,-0.0083 -0.241271,-0.04904 -0.10398,-0.103978 z m 7.056205,0 c 0.124235,-0.04972 0.272675,-0.0436 0.329863,0.01358 0.05719,0.05719 -0.04446,0.09786 -0.225884,0.09039 -0.200491,-0.0083 -0.241271,-0.04904 -0.103979,-0.103978 z m 104.627585,0.0036 c 0.11832,-0.04774 0.31194,-0.04774 0.43026,0 0.11832,0.04774 0.0215,0.08681 -0.21513,0.08681 -0.23664,0 -0.33345,-0.03906 -0.21513,-0.08681 z m 3.26995,0 c 0.11832,-0.04774 0.31194,-0.04774 0.43026,0 0.11832,0.04774 0.0215,0.08681 -0.21513,0.08681 -0.23664,0 -0.33345,-0.03906 -0.21513,-0.08681 z"
     id="path5117" /><path
     style="fill:#ffffff;fill-opacity:1;stroke-width:0.172103"
     d="m 53.381218,110.67869 c 0.124236,-0.0497 0.272676,-0.0436 0.329864,0.0136 0.05719,0.0572 -0.04446,0.0979 -0.225885,0.0904 -0.200491,-0.008 -0.24127,-0.049 -0.103979,-0.10398 z m 6.195691,0 c 0.124236,-0.0497 0.272676,-0.0436 0.329864,0.0136 0.05719,0.0572 -0.04446,0.0979 -0.225884,0.0904 -0.200491,-0.008 -0.241271,-0.049 -0.10398,-0.10398 z m 104.982551,0 c 0.12424,-0.0497 0.27268,-0.0436 0.32987,0.0136 0.0572,0.0572 -0.0445,0.0979 -0.22589,0.0904 -0.2005,-0.008 -0.24127,-0.049 -0.10398,-0.10398 z m 4.99097,0 c 0.12424,-0.0497 0.27268,-0.0436 0.32987,0.0136 0.0572,0.0572 -0.0445,0.0979 -0.22588,0.0904 -0.2005,-0.008 -0.24127,-0.049 -0.10399,-0.10398 z m 61.0964,0 c 0.12425,-0.0497 0.27268,-0.0436 0.32987,0.0136 0.0572,0.0572 -0.0445,0.0979 -0.22588,0.0904 -0.2005,-0.008 -0.24127,-0.049 -0.10399,-0.10398 z m 141.97001,-0.007 c 0.30551,-0.038 0.84763,-0.0387 1.20471,-0.002 0.35708,0.0373 0.1071,0.0684 -0.55549,0.0691 -0.6626,0 -0.95474,-0.0297 -0.64922,-0.0677 z m -46.10889,-1.02597 c 0.12424,-0.0497 0.27268,-0.0436 0.32987,0.0136 0.0572,0.0572 -0.0445,0.0979 -0.22589,0.0904 -0.2005,-0.008 -0.24127,-0.0491 -0.10398,-0.10398 z m 2.74288,0.004 c 0.11832,-0.0477 0.31194,-0.0477 0.43026,0 0.11832,0.0477 0.0215,0.0868 -0.21513,0.0868 -0.23664,0 -0.33345,-0.0391 -0.21513,-0.0868 z m -72.38013,-1.04736 c 1.57944,-0.0284 4.21261,-0.0284 5.85149,-1.2e-4 1.63888,0.0283 0.34661,0.0515 -2.87171,0.0516 -3.21831,7e-5 -4.55922,-0.0231 -2.97978,-0.0515 z m 24.69663,-2e-5 c 1.62671,-0.0283 4.33733,-0.0283 6.02359,-1e-4 1.68626,0.0282 0.3553,0.0513 -2.95767,0.0514 -3.31297,7e-5 -4.69263,-0.023 -3.06592,-0.0513 z m 32.65673,-4.21684 -0.50548,-0.55933 0.55933,0.50548 c 0.30764,0.27802 0.55934,0.52972 0.55934,0.55933 0,0.13297 -0.14201,0.0158 -0.61319,-0.50548 z m -170.38704,-2.58154 -0.32785,-0.38723 0.38723,0.32786 c 0.36389,0.3081 0.46557,0.44661 0.32785,0.44661 -0.0327,0 -0.20692,-0.17426 -0.38723,-0.38724 z m 252.91384,-0.5163 c 0.422,-0.44962 0.78987,-0.81749 0.81749,-0.81749 0.12923,0 -0.007,0.15451 -0.76727,0.86771 l -0.81749,0.76726 z M 235.1215,99.664096 c 0.12424,-0.04972 0.27268,-0.04361 0.32987,0.0136 0.0572,0.05719 -0.0445,0.09788 -0.22589,0.09041 -0.20049,-0.0083 -0.24127,-0.04905 -0.10398,-0.103985 z m 137.16572,0 c 0.12425,-0.04972 0.27268,-0.04361 0.32987,0.0136 0.0572,0.05719 -0.0445,0.09788 -0.22588,0.09041 -0.2005,-0.0083 -0.24127,-0.04905 -0.10399,-0.103985 z m 2.22658,0.0036 c 0.11832,-0.04774 0.31194,-0.04774 0.43026,0 0.11832,0.04774 0.0215,0.08681 -0.21513,0.08681 -0.23664,0 -0.33345,-0.03907 -0.21513,-0.08681 z M 246.85674,95.75835 c 0,-0.03573 0.13553,-0.17126 0.30118,-0.30118 0.27297,-0.214061 0.27905,-0.207986 0.065,0.06499 -0.22484,0.286671 -0.36617,0.377851 -0.36617,0.236194 z m -227.277753,-0.494348 -0.327854,-0.387231 0.387231,0.327856 c 0.3639,0.308098 0.465578,0.446606 0.327853,0.446606 -0.03266,0 -0.206912,-0.174254 -0.38723,-0.387231 z M 247.54515,95.069939 c 0,-0.03573 0.13553,-0.171259 0.30118,-0.301179 0.27297,-0.214061 0.27905,-0.207986 0.065,0.06499 -0.22484,0.286671 -0.36617,0.377851 -0.36617,0.236193 z M 58.888499,92.435824 c 0.124236,-0.04972 0.272676,-0.04361 0.329864,0.0136 0.05719,0.05719 -0.04446,0.09788 -0.225884,0.09041 -0.200491,-0.0083 -0.241271,-0.04905 -0.10398,-0.103985 z M 321.45972,71.470826 c 10e-6,-8.897701 0.0209,-12.512443 0.0465,-8.032766 0.0255,4.479692 0.0255,11.759629 -10e-6,16.177639 -0.0256,4.418027 -0.0464,0.752828 -0.0464,-8.144873 z M 77.163638,85.27123 c 0,-0.02962 0.2517,-0.281319 0.559333,-0.559334 l 0.559333,-0.505482 -0.50548,0.559333 c -0.471179,0.521385 -0.613186,0.638449 -0.613186,0.505483 z m -43.034899,-1.796252 -0.593095,-0.645384 0.645384,0.593099 c 0.354962,0.326204 0.645385,0.616627 0.645385,0.645385 0,0.131417 -0.145637,0.0076 -0.697674,-0.5931 z M 253.41022,81.438437 c 0.008,-0.200499 0.049,-0.24127 0.10398,-0.103984 0.0497,0.124241 0.0436,0.272679 -0.0136,0.329869 -0.0572,0.05719 -0.0979,-0.04447 -0.0904,-0.225885 z M 198.3374,80.92213 c 0.008,-0.2005 0.049,-0.241271 0.10399,-0.103985 0.0497,0.124241 0.0436,0.27268 -0.0136,0.329869 -0.0572,0.05719 -0.0979,-0.04447 -0.0904,-0.225884 z m 142.1567,-2.237333 c 0.008,-0.2005 0.0491,-0.241271 0.10399,-0.103985 0.0497,0.124241 0.0436,0.272679 -0.0136,0.329869 -0.0572,0.05719 -0.0979,-0.04447 -0.0904,-0.225884 z m 24.98432,-0.02867 c 6.98091,-0.02489 18.40421,-0.02489 25.38512,0 6.98091,0.02489 1.26926,0.04526 -12.69256,0.04526 -13.96182,0 -19.67347,-0.02038 -12.69256,-0.04526 z m 38.01881,-3.657196 c 0,-0.236641 0.0391,-0.333449 0.0868,-0.215128 0.0477,0.11832 0.0477,0.311936 0,0.430256 -0.0477,0.118321 -0.0868,0.02151 -0.0868,-0.215128 z m -63.00313,-0.9609 c 0.008,-0.200499 0.0491,-0.241271 0.10399,-0.103984 0.0497,0.12424 0.0436,0.272679 -0.0136,0.329869 -0.0572,0.05719 -0.0979,-0.04447 -0.0904,-0.225885 z M 102.99261,69.391259 c 0.008,-0.200499 0.049,-0.24127 0.10397,-0.103984 0.0497,0.124241 0.0436,0.272679 -0.0136,0.329869 -0.0572,0.05719 -0.0979,-0.04447 -0.0904,-0.225885 z M 6.4630452,63.898314 c 0.00351,-0.283969 0.042079,-0.379296 0.085714,-0.211858 0.043635,0.167456 0.040766,0.399794 -0.00638,0.516308 -0.047144,0.11653 -0.082845,-0.02048 -0.079338,-0.30445 z m -0.00638,-4.560717 c 0,-0.236641 0.039064,-0.333449 0.086807,-0.215128 0.047743,0.11832 0.047743,0.311936 0,0.430256 -0.047743,0.118321 -0.086807,0.02151 -0.086807,-0.215128 z M 359.15365,58.304982 c 0.17133,-0.189313 0.35023,-0.344205 0.39756,-0.344205 0.0473,0 -0.0541,0.154892 -0.22546,0.344205 -0.17133,0.189313 -0.35023,0.344205 -0.39755,0.344205 -0.0473,0 0.0541,-0.154892 0.22545,-0.344205 z M 25.718566,58.204589 c 0.0083,-0.200491 0.04904,-0.24127 0.103977,-0.103979 0.04972,0.124236 0.0436,0.272676 -0.01358,0.329864 -0.05719,0.05719 -0.09786,-0.04446 -0.09039,-0.225885 z m 118.296084,-4.073094 -0.50548,-0.559333 0.55933,0.505481 c 0.52138,0.471178 0.63845,0.613185 0.50548,0.613185 -0.0296,0 -0.28132,-0.2517 -0.55933,-0.559333 z m 227.0571,-1.10357 c 0.11832,-0.04774 0.31194,-0.04774 0.43026,0 0.11832,0.04774 0.0215,0.08681 -0.21513,0.08681 -0.23664,0 -0.33345,-0.03906 -0.21513,-0.08681 z m 1.81035,-0.0053 c 0.16745,-0.04363 0.39979,-0.04077 0.5163,0.0064 0.11654,0.04714 -0.0205,0.08284 -0.30444,0.07934 -0.28397,-0.0035 -0.3793,-0.04208 -0.21186,-0.08571 z m 21.7977,-2.075044 -0.41723,-0.473282 0.47328,0.41723 c 0.2603,0.229478 0.47328,0.442455 0.47328,0.473282 0,0.134977 -0.13937,0.02512 -0.52933,-0.41723 z M 309.41056,34.296677 c -2e-5,-5.490071 0.0217,-7.7609 0.0484,-5.046285 0.0266,2.714613 0.0266,7.206489 4e-5,9.981947 -0.0266,2.775456 -0.0484,0.554409 -0.0484,-4.935662 z m 12.04718,0 c -2e-5,-5.490071 0.0217,-7.7609 0.0484,-5.046285 0.0266,2.714613 0.0266,7.206489 3e-5,9.981947 -0.0266,2.775456 -0.0484,0.554409 -0.0484,-4.935662 z m 48.07584,7.885204 c 0.12424,-0.04972 0.27268,-0.0436 0.32987,0.01358 0.0572,0.05719 -0.0445,0.09786 -0.22588,0.09039 -0.2005,-0.0083 -0.24127,-0.04904 -0.10399,-0.103977 z m 5.50729,0 c 0.12424,-0.04972 0.27267,-0.0436 0.32986,0.01358 0.0572,0.05719 -0.0445,0.09786 -0.22588,0.09039 -0.2005,-0.0083 -0.24127,-0.04904 -0.10398,-0.103977 z M 34.826413,38.792416 c 0,-0.03574 0.135531,-0.171268 0.301179,-0.30118 0.272965,-0.214073 0.279053,-0.207986 0.06498,0.06498 -0.224829,0.28668 -0.366158,0.377848 -0.366158,0.236201 z m 48.877121,-2.742515 c 0,-0.02962 0.2517,-0.281318 0.559334,-0.559333 l 0.559333,-0.50548 -0.505481,0.559333 c -0.471179,0.521378 -0.613186,0.63844 -0.613186,0.50548 z m 53.709576,-0.218642 c 0.008,-0.200491 0.049,-0.241271 0.10398,-0.103979 0.0497,0.124235 0.0436,0.272676 -0.0136,0.329864 -0.0572,0.05719 -0.0979,-0.04446 -0.0904,-0.225885 z M 54.403077,30.482493 c 0.11832,-0.04774 0.311936,-0.04774 0.430256,0 0.118321,0.04774 0.02151,0.08681 -0.215128,0.08681 -0.236641,0 -0.333449,-0.03906 -0.215128,-0.08681 z m 3.442051,0 c 0.11832,-0.04774 0.311936,-0.04774 0.430256,0 0.118321,0.04774 0.02151,0.08681 -0.215128,0.08681 -0.236641,0 -0.333449,-0.03906 -0.215128,-0.08681 z m 31.53779,0.06013 c 0,-0.02962 0.2517,-0.281319 0.559333,-0.559333 l 0.559334,-0.505481 -0.505481,0.559334 c -0.471179,0.521377 -0.613186,0.63844 -0.613186,0.50548 z m 63.850042,-1.409019 c 0.22231,-0.236641 0.44292,-0.430256 0.49025,-0.430256 0.0473,0 -0.0958,0.193615 -0.31815,0.430256 -0.2223,0.236641 -0.44292,0.430257 -0.49025,0.430257 -0.0473,0 0.0959,-0.193616 0.31815,-0.430257 z M 90.221477,25.132217 c -0.214073,-0.272965 -0.207985,-0.279052 0.06498,-0.06498 0.165649,0.129912 0.30118,0.265442 0.30118,0.30118 0,0.141647 -0.141329,0.05048 -0.366159,-0.236201 z M 276.12775,21.202543 c 0.008,-0.200491 0.0491,-0.24127 0.10399,-0.103979 0.0497,0.124236 0.0436,0.272676 -0.0136,0.329864 -0.0572,0.05719 -0.0979,-0.04446 -0.0904,-0.225885 z M 144.36968,20.958731 c 0.17133,-0.189313 0.35023,-0.344206 0.39756,-0.344206 0.0473,0 -0.0541,0.154893 -0.22546,0.344206 -0.17133,0.189312 -0.35023,0.344205 -0.39755,0.344205 -0.0473,0 0.0541,-0.154893 0.22545,-0.344205 z m 139.45684,-7.517975 c 0.12424,-0.04972 0.27268,-0.0436 0.32987,0.01358 0.0572,0.05719 -0.0445,0.09786 -0.22589,0.09039 -0.2005,-0.0083 -0.24127,-0.04904 -0.10398,-0.103978 z M 53.381218,12.408141 c 0.124236,-0.04972 0.272676,-0.0436 0.329864,0.01358 0.05719,0.05719 -0.04446,0.09786 -0.225885,0.09039 -0.200491,-0.0083 -0.24127,-0.04904 -0.103979,-0.103978 z m 6.023589,0 c 0.124236,-0.04972 0.272676,-0.0436 0.329864,0.01358 0.05719,0.05719 -0.04446,0.09786 -0.225885,0.09039 -0.200491,-0.0083 -0.24127,-0.04904 -0.103979,-0.103978 z m 106.353153,-0.0087 c 0.40481,-0.03636 1.02438,-0.03584 1.37682,0.0012 0.35247,0.03698 0.0213,0.06673 -0.73598,0.0661 -0.75725,-6.88e-4 -1.04562,-0.03088 -0.64084,-0.06724 z"
     id="path5115" /><path
     style="fill:#ffffff;fill-opacity:1;stroke-width:0.172103"
     d="m 53.976096,110.67699 c 0.16745,-0.0436 0.399789,-0.0408 0.516307,0.006 0.116519,0.0471 -0.02049,0.0828 -0.304454,0.0793 -0.28397,-0.003 -0.379304,-0.0421 -0.211853,-0.0857 z m 4.643493,0 c 0.165649,-0.0433 0.43671,-0.0433 0.602359,0 0.165649,0.0433 0.03012,0.0787 -0.301179,0.0787 -0.331298,0 -0.466829,-0.0354 -0.30118,-0.0787 z m 106.456181,0.002 c 0.12424,-0.0497 0.27268,-0.0436 0.32987,0.0136 0.0572,0.0572 -0.0445,0.0979 -0.22589,0.0904 -0.2005,-0.008 -0.24127,-0.049 -0.10398,-0.10398 z m 3.95835,0 c 0.12425,-0.0497 0.27268,-0.0436 0.32987,0.0136 0.0572,0.0572 -0.0445,0.0979 -0.22588,0.0904 -0.2005,-0.008 -0.24127,-0.049 -0.10399,-0.10398 z m 62.12902,0 c 0.12424,-0.0497 0.27268,-0.0436 0.32987,0.0136 0.0572,0.0572 -0.0445,0.0979 -0.22588,0.0904 -0.2005,-0.008 -0.24127,-0.049 -0.10399,-0.10398 z m 3.26995,0 c 0.12424,-0.0497 0.27268,-0.0436 0.32987,0.0136 0.0572,0.0572 -0.0445,0.0979 -0.22589,0.0904 -0.20049,-0.008 -0.24127,-0.049 -0.10398,-0.10398 z m 92.92078,-1.03926 c 0.30551,-0.038 0.84764,-0.0386 1.20472,-0.002 0.35707,0.0373 0.10709,0.0684 -0.5555,0.0691 -0.66259,0 -0.95474,-0.0297 -0.64922,-0.0677 z M 250.4709,103.4819 c 0.3211,-0.3313 0.62254,-0.60236 0.66987,-0.60236 0.0473,0 -0.17666,0.27106 -0.49777,0.60236 -0.32111,0.3313 -0.62255,0.60236 -0.66988,0.60236 -0.0473,0 0.17667,-0.27106 0.49778,-0.60236 z m -60.23589,-0.83945 c 0,-0.0357 0.13553,-0.17126 0.30118,-0.30118 0.27297,-0.21406 0.27904,-0.20798 0.065,0.065 -0.22483,0.28667 -0.36616,0.37785 -0.36616,0.23619 z m -47.33746,-1.78512 -0.5931,-0.64538 0.64538,0.5931 c 0.60071,0.55204 0.72452,0.69767 0.5931,0.69767 -0.0288,0 -0.31918,-0.29042 -0.64538,-0.64539 z m 91.70764,-1.193199 c 0.12424,-0.04972 0.27268,-0.04361 0.32987,0.0136 0.0572,0.05719 -0.0445,0.09787 -0.22588,0.0904 -0.2005,-0.0083 -0.24127,-0.04905 -0.10399,-0.103984 z m 19.10338,0 c 0.12425,-0.04972 0.27268,-0.04361 0.32987,0.0136 0.0572,0.05719 -0.0445,0.09787 -0.22588,0.0904 -0.2005,-0.0083 -0.24127,-0.04905 -0.10399,-0.103984 z m -233.088714,-3.367514 -0.680313,-0.731435 0.731436,0.680304 c 0.40229,0.374185 0.731436,0.703331 0.731436,0.731436 0,0.130212 -0.149876,-6.9e-5 -0.782559,-0.680305 z m 131.827814,-3.44205 -0.50548,-0.559334 0.55933,0.505483 c 0.30764,0.278014 0.55934,0.529714 0.55934,0.559333 0,0.132966 -0.142,0.01583 -0.61319,-0.505482 z M 53.725423,92.435824 c 0.124236,-0.04972 0.272676,-0.04361 0.329864,0.0136 0.05719,0.05719 -0.04446,0.09788 -0.225885,0.09041 -0.200491,-0.0083 -0.24127,-0.04905 -0.103979,-0.103985 z m 5.679384,0 c 0.124236,-0.04972 0.272676,-0.04361 0.329864,0.0136 0.05719,0.05719 -0.04446,0.09788 -0.225885,0.09041 -0.200491,-0.0083 -0.24127,-0.04905 -0.103979,-0.103985 z M 321.42055,88.164772 c 0.002,-0.378625 0.0371,-0.513261 0.0783,-0.299165 0.0412,0.214078 0.0396,0.523863 -0.003,0.68841 -0.0431,0.16453 -0.0768,-0.01067 -0.0749,-0.389245 z M 340.5077,78.096774 c 0,-0.236641 0.0391,-0.333449 0.0868,-0.215128 0.0477,0.11832 0.0477,0.311936 0,0.430256 -0.0477,0.118321 -0.0868,0.02151 -0.0868,-0.215128 z m 63.01157,-1.979179 c 0.002,-0.473282 0.0347,-0.646469 0.0743,-0.384873 0.0396,0.261613 0.0385,0.648844 -0.002,0.860512 -0.0408,0.211687 -0.0732,-0.0024 -0.0719,-0.475639 z m -63.0052,-1.376821 c 0.003,-0.283969 0.0421,-0.379296 0.0857,-0.211858 0.0436,0.167456 0.0408,0.399794 -0.006,0.516308 -0.0471,0.11653 -0.0828,-0.02048 -0.0793,-0.30445 z M 63.008204,72.63257 c 3.904576,-0.0258 10.293883,-0.0258 14.198459,0 3.904577,0.0258 0.709923,0.0469 -7.099229,0.0469 -7.809153,0 -11.003807,-0.0211 -7.09923,-0.0469 z m 39.984406,-3.757618 c 0.008,-0.2005 0.049,-0.241271 0.10397,-0.103985 0.0497,0.124241 0.0436,0.27268 -0.0136,0.329869 -0.0572,0.05719 -0.0979,-0.04447 -0.0904,-0.225884 z m 88.26575,-3.987048 -0.5931,-0.645385 0.64539,0.5931 c 0.35496,0.326203 0.64538,0.616626 0.64538,0.645385 0,0.131417 -0.14563,0.0076 -0.69767,-0.5931 z M 6.4728947,62.865699 c 0.00191,-0.378626 0.037155,-0.513261 0.07832,-0.299166 0.041165,0.214079 0.039602,0.523863 -0.00348,0.68841 -0.043075,0.16453 -0.076758,-0.01067 -0.074847,-0.389244 z m 19.0935323,-1.37682 c 0.0035,-0.283969 0.04208,-0.379304 0.08571,-0.211853 0.04363,0.16745 0.04077,0.399789 -0.0064,0.516302 -0.04714,0.116531 -0.08284,-0.02048 -0.07934,-0.304449 z M 6.4763677,60.370212 c 0,-0.425954 0.033563,-0.600207 0.074584,-0.38723 0.041022,0.212976 0.041022,0.561484 0,0.774461 -0.041021,0.212977 -0.074584,0.03872 -0.074584,-0.387231 z m 379.5983023,-2.194307 -0.41723,-0.473282 0.47328,0.41723 c 0.44236,0.389965 0.55221,0.529334 0.41723,0.529334 -0.0308,0 -0.2438,-0.212977 -0.47328,-0.473282 z m -26.49076,-0.280107 c 0,-0.03574 0.13553,-0.171268 0.30118,-0.30118 0.27297,-0.214073 0.27904,-0.207986 0.065,0.06498 -0.22483,0.28668 -0.36616,0.377848 -0.36616,0.236201 z m 10.98229,-4.871457 c 0.12424,-0.04972 0.27268,-0.0436 0.32987,0.01358 0.0572,0.05719 -0.0445,0.09786 -0.22589,0.09039 -0.2005,-0.0083 -0.24127,-0.04904 -0.10398,-0.103977 z m 3.09784,0 c 0.12425,-0.04972 0.27268,-0.0436 0.32987,0.01358 0.0572,0.05719 -0.0445,0.09786 -0.22588,0.09039 -0.2005,-0.0083 -0.24127,-0.04904 -0.10399,-0.103977 z m -24.14813,-1.259256 c 0.17133,-0.189313 0.35023,-0.344205 0.39755,-0.344205 0.0473,0 -0.0541,0.154892 -0.22545,0.344205 -0.17133,0.189313 -0.35023,0.344205 -0.39756,0.344205 -0.0473,0 0.0541,-0.154892 0.22546,-0.344205 z m 44.46654,-1.505897 c -0.21406,-0.272965 -0.20798,-0.279052 0.065,-0.06498 0.16565,0.129912 0.30118,0.265442 0.30118,0.301179 0,0.141648 -0.14133,0.05048 -0.36617,-0.2362 z m -43.00367,0.0641 c 0,-0.03574 0.13553,-0.171268 0.30118,-0.30118 0.27297,-0.214073 0.27905,-0.207985 0.065,0.06498 -0.22483,0.28668 -0.36616,0.377848 -0.36616,0.236201 z M 79.831227,39.717907 c 0.171327,-0.189312 0.350225,-0.344205 0.397554,-0.344205 0.04733,0 -0.05412,0.154893 -0.225451,0.344205 -0.171327,0.189313 -0.350226,0.344205 -0.397554,0.344205 -0.04733,0 0.05412,-0.154892 0.225451,-0.344205 z m 57.581883,-0.788802 c 0.008,-0.200491 0.049,-0.241271 0.10398,-0.10398 0.0497,0.124236 0.0436,0.272676 -0.0136,0.329864 -0.0572,0.05719 -0.0979,-0.04446 -0.0904,-0.225884 z M 35.342721,38.276108 c 0,-0.03574 0.13553,-0.171268 0.301179,-0.301179 0.272965,-0.214074 0.279052,-0.207986 0.06498,0.06498 -0.22483,0.286679 -0.366158,0.377847 -0.366158,0.2362 z M 137.41311,36.347567 c 0.008,-0.200491 0.049,-0.241271 0.10398,-0.10398 0.0497,0.124236 0.0436,0.272676 -0.0136,0.329864 -0.0572,0.05719 -0.0979,-0.04446 -0.0904,-0.225884 z M 85.252457,34.46878 c 0.321106,-0.331297 0.622552,-0.602359 0.66988,-0.602359 0.04733,0 -0.176672,0.271062 -0.497777,0.602359 -0.321106,0.331297 -0.622552,0.602359 -0.66988,0.602359 -0.04733,0 0.176672,-0.271062 0.497777,-0.602359 z M 58.544294,30.478908 c 0.124236,-0.04971 0.272676,-0.0436 0.329864,0.01358 0.05719,0.05719 -0.04446,0.09786 -0.225885,0.09039 -0.20049,-0.0083 -0.24127,-0.04904 -0.103979,-0.103977 z m 121.527406,-1.388332 -0.5931,-0.645385 0.64538,0.593095 c 0.35496,0.326201 0.64539,0.616624 0.64539,0.645384 0,0.131421 -0.14564,0.0076 -0.69767,-0.593094 z m -89.656167,0.419429 c 0,-0.02962 0.2517,-0.281319 0.559334,-0.559333 l 0.559333,-0.505481 -0.505481,0.559333 c -0.471179,0.521378 -0.613186,0.63844 -0.613186,0.505481 z M 18.648774,28.810468 c 0,-0.03574 0.135531,-0.171267 0.30118,-0.301179 0.272965,-0.214073 0.279052,-0.207986 0.06498,0.06498 -0.22483,0.28668 -0.366159,0.377848 -0.366159,0.2362 z m 72.627272,-2.60261 c -0.418042,-0.425954 -0.721354,-0.774461 -0.674026,-0.774461 0.04733,0 0.428086,0.348507 0.846129,0.774461 0.418042,0.425954 0.721354,0.774461 0.674025,0.774461 -0.04733,0 -0.428086,-0.348507 -0.846128,-0.774461 z M 312.37368,24.444131 c 1.62672,-0.02826 4.33733,-0.02831 6.02359,-1.07e-4 1.68626,0.0282 0.35531,0.05132 -2.95767,0.05138 -3.31297,5.8e-5 -4.69263,-0.02302 -3.06592,-0.05128 z M 276.1541,21.991346 c 0,-0.331298 0.0354,-0.466828 0.0787,-0.30118 0.0433,0.165649 0.0433,0.436711 0,0.602359 -0.0433,0.165649 -0.0787,0.03012 -0.0787,-0.301179 z m 8.26402,-8.55166 c 0.16565,-0.04329 0.43671,-0.04329 0.60236,0 0.16565,0.04329 0.0301,0.07871 -0.30118,0.07871 -0.3313,0 -0.46683,-0.03542 -0.30118,-0.07871 z M 53.976096,12.406441 c 0.16745,-0.04363 0.399789,-0.04077 0.516307,0.0064 0.116519,0.04714 -0.02049,0.08284 -0.304454,0.07934 -0.28397,-0.0035 -0.379304,-0.04208 -0.211853,-0.08571 z m 4.646768,0 c 0.167451,-0.04363 0.399789,-0.04077 0.516308,0.0064 0.116518,0.04714 -0.02049,0.08284 -0.304455,0.07934 -0.283969,-0.0035 -0.379303,-0.04208 -0.211853,-0.08571 z"
     id="path5113" /><path
     style="fill:#ffffff;fill-opacity:1;stroke-width:0.172103"
     d="m 54.833333,110.67763 c 0.165649,-0.0433 0.43671,-0.0433 0.602359,0 0.165649,0.0433 0.03012,0.0787 -0.301179,0.0787 -0.331298,0 -0.466828,-0.0354 -0.30118,-0.0787 z m 2.753641,0 c 0.165649,-0.0433 0.43671,-0.0433 0.602359,0 0.165648,0.0433 0.03012,0.0787 -0.30118,0.0787 -0.331297,0 -0.466828,-0.0354 -0.301179,-0.0787 z m 108.168456,-0.003 c 0.21408,-0.0412 0.52387,-0.0396 0.68841,0.003 0.16453,0.0431 -0.0107,0.0768 -0.38924,0.0748 -0.37863,-0.002 -0.51326,-0.0372 -0.29917,-0.0783 z m 2.23734,0 c 0.21408,-0.0412 0.52386,-0.0396 0.68841,0.003 0.16453,0.0431 -0.0107,0.0768 -0.38925,0.0748 -0.37862,-0.002 -0.51326,-0.0372 -0.29916,-0.0783 z m 63.76197,0.003 c 0.16565,-0.0433 0.43671,-0.0433 0.60236,0 0.16565,0.0433 0.0301,0.0787 -0.30118,0.0787 -0.33129,0 -0.46682,-0.0354 -0.30118,-0.0787 z m 1.8964,0 c 0.16746,-0.0436 0.3998,-0.0408 0.51631,0.006 0.11653,0.0471 -0.0205,0.0828 -0.30445,0.0793 -0.28397,-0.003 -0.3793,-0.0421 -0.21186,-0.0857 z m 136.22665,-0.1704 c 0.12424,-0.0497 0.27268,-0.0436 0.32987,0.0136 0.0572,0.0572 -0.0445,0.0979 -0.22589,0.0904 -0.2005,-0.008 -0.24127,-0.0491 -0.10398,-0.10399 z M 290.65505,76.375748 c 0,-17.748074 0.0202,-25.00865 0.0448,-16.134613 0.0246,8.874038 0.0246,23.395189 0,32.269227 -0.0246,8.874038 -0.0448,1.613461 -0.0448,-16.134614 z M 216.20053,105.1599 c -0.21406,-0.27297 -0.20799,-0.27905 0.065,-0.065 0.16564,0.12992 0.30118,0.26545 0.30118,0.30118 0,0.14166 -0.14134,0.0505 -0.36617,-0.23619 z m -1.72103,-1.72103 c -0.21406,-0.27297 -0.20798,-0.27904 0.065,-0.065 0.28667,0.22483 0.37785,0.36616 0.23619,0.36616 -0.0357,0 -0.17126,-0.13553 -0.30118,-0.30118 z m 180.55753,-0.62432 c 0,-0.0357 0.13553,-0.17126 0.30118,-0.30118 0.27297,-0.21406 0.27905,-0.20798 0.065,0.065 -0.22483,0.28667 -0.36616,0.37785 -0.36616,0.23619 z m -44.75255,-1.26881 -0.94068,-0.98958 0.98959,0.94067 c 0.91936,0.87394 1.06843,1.0385 0.94068,1.0385 -0.0269,0 -0.4722,-0.44531 -0.98959,-0.98959 z m -159.53317,0.59154 c 0,-0.0296 0.2517,-0.28132 0.55934,-0.55933 l 0.55933,-0.50549 -0.50548,0.55934 c -0.47118,0.52138 -0.61319,0.63844 -0.61319,0.50548 z M 89.555021,98.873853 c 0,-0.02604 0.600207,-0.626247 1.333794,-1.333795 l 1.333795,-1.286466 -1.286461,1.333794 c -1.194838,1.238795 -1.381128,1.412326 -1.381128,1.286467 z M 22.585179,98.103694 c -0.214073,-0.272972 -0.207986,-0.279047 0.06498,-0.06499 0.28668,0.224835 0.377848,0.366166 0.236201,0.366166 -0.03574,0 -0.171268,-0.135531 -0.30118,-0.30118 z m 202.061081,-2.409435 -0.5931,-0.645385 0.64538,0.5931 c 0.60071,0.552036 0.72452,0.697669 0.5931,0.697669 -0.0288,0 -0.31918,-0.290423 -0.64538,-0.645384 z m 99.03792,0.258153 -0.32786,-0.38723 0.38723,0.327855 c 0.3639,0.308098 0.46557,0.446606 0.32786,0.446606 -0.0327,0 -0.20692,-0.174254 -0.38723,-0.387231 z m 63.69429,-1.850102 c 0.36971,-0.378626 0.71093,-0.68841 0.75826,-0.68841 0.0473,0 -0.21645,0.309784 -0.58616,0.68841 -0.36971,0.378626 -0.71094,0.68841 -0.75827,0.68841 -0.0473,0 0.21646,-0.309784 0.58617,-0.68841 z M 18.626821,94.14534 c -0.214073,-0.272972 -0.207986,-0.279047 0.06498,-0.06499 0.165649,0.12992 0.301179,0.265451 0.301179,0.301179 0,0.141658 -0.141329,0.05048 -0.366158,-0.236193 z m 340.004049,-0.602359 -0.85404,-0.903539 0.90354,0.854042 c 0.83958,0.793599 0.98246,0.953035 0.85404,0.953035 -0.0272,0 -0.43382,-0.406592 -0.90354,-0.903538 z M 153.211,93.629028 c -0.21406,-0.272972 -0.20799,-0.279047 0.065,-0.06499 0.28667,0.224835 0.37785,0.366166 0.23619,0.366166 -0.0357,0 -0.17126,-0.135531 -0.30118,-0.30118 z m 156.30465,-0.831823 c 0.008,-0.2005 0.049,-0.241271 0.10398,-0.103984 0.0497,0.12424 0.0436,0.272679 -0.0136,0.329868 -0.0572,0.05719 -0.0979,-0.04447 -0.0904,-0.225884 z m -157.85357,-0.7171 c -0.21406,-0.272972 -0.20799,-0.279047 0.065,-0.06499 0.28667,0.224835 0.37785,0.366166 0.2362,0.366166 -0.0357,0 -0.17126,-0.135531 -0.30118,-0.30118 z m 57.00148,-4.790181 c 0.008,-0.2005 0.0491,-0.241271 0.10398,-0.103985 0.0497,0.124241 0.0436,0.272679 -0.0136,0.329869 -0.0572,0.05719 -0.0979,-0.04447 -0.0904,-0.225884 z M 198.3374,85.052591 c 0.008,-0.2005 0.049,-0.241271 0.10399,-0.103985 0.0497,0.124241 0.0436,0.272679 -0.0136,0.329869 -0.0572,0.05719 -0.0979,-0.04447 -0.0904,-0.225884 z m -162.92498,-0.286844 -0.327853,-0.38723 0.38723,0.327855 c 0.363901,0.308098 0.465579,0.446606 0.327854,0.446606 -0.03266,0 -0.206912,-0.174254 -0.387231,-0.387231 z M 220.60828,64.156468 c 0,-11.02747 0.0206,-15.538708 0.0458,-10.024973 0.0252,5.513735 0.0252,14.536211 0,20.049946 -0.0252,5.513735 -0.0458,1.002497 -0.0458,-10.024973 z M 78.540458,83.883274 c 0,-0.03573 0.135531,-0.171259 0.30118,-0.301179 0.272964,-0.214061 0.279052,-0.207986 0.06498,0.06499 -0.22483,0.286671 -0.366159,0.377851 -0.366159,0.236193 z M 32.911332,82.27026 c -0.214074,-0.272971 -0.207986,-0.279047 0.06498,-0.06498 0.286679,0.224834 0.377847,0.366165 0.2362,0.366165 -0.03574,0 -0.171268,-0.135531 -0.301179,-0.30118 z M 198.3374,81.782642 c 0.008,-0.200499 0.049,-0.24127 0.10399,-0.103984 0.0497,0.124241 0.0436,0.272679 -0.0136,0.329869 -0.0572,0.05719 -0.0979,-0.04447 -0.0904,-0.225885 z m 154.37598,-2.925743 c 0.008,-0.200499 0.0491,-0.24127 0.10399,-0.103984 0.0497,0.124241 0.0436,0.272679 -0.0136,0.329869 -0.0572,0.05719 -0.0979,-0.04447 -0.0904,-0.225885 z M 340.53952,76.4618 c 0,-0.757251 0.0309,-1.045626 0.0672,-0.640841 0.0363,0.404802 0.0358,1.024371 -0.002,1.37682 -0.037,0.352466 -0.0667,0.02127 -0.0661,-0.735979 z m 62.94411,0.674074 c 0.008,-0.2005 0.0491,-0.241271 0.10399,-0.103985 0.0497,0.124241 0.0436,0.27268 -0.0136,0.329869 -0.0572,0.05719 -0.0979,-0.04447 -0.0904,-0.225884 z M 181.80198,73.536057 c -0.41803,-0.425954 -0.72135,-0.774462 -0.67402,-0.774462 0.0473,0 0.42809,0.348508 0.84612,0.774462 0.41804,0.425953 0.72136,0.774461 0.67403,0.774461 -0.0473,0 -0.42809,-0.348508 -0.84613,-0.774461 z M 25.57975,62.607545 c 0,-0.425954 0.03356,-0.600207 0.07458,-0.38723 0.04102,0.212976 0.04102,0.561484 0,0.774461 -0.04102,0.212977 -0.07458,0.03872 -0.07458,-0.387231 z M 6.4728947,61.660981 c 0.00191,-0.378625 0.037155,-0.513253 0.07832,-0.299172 0.041165,0.214085 0.039602,0.523869 -0.00348,0.688417 -0.043075,0.16453 -0.076758,-0.01067 -0.074847,-0.389245 z M 25.576277,60.456263 c 0.0019,-0.378625 0.03715,-0.513252 0.07832,-0.299172 0.04116,0.21408 0.0396,0.523864 -0.0035,0.68841 -0.04308,0.164545 -0.07676,-0.01062 -0.07485,-0.389238 z M 358.03498,59.44472 c 0,-0.03574 0.13553,-0.171267 0.30118,-0.301179 0.27297,-0.214073 0.27905,-0.207986 0.065,0.06498 -0.22484,0.28668 -0.36617,0.377848 -0.36617,0.2362 z m 28.71917,-0.580405 c -0.21406,-0.272965 -0.20799,-0.279052 0.065,-0.06498 0.16565,0.129912 0.30118,0.265442 0.30118,0.301179 0,0.141648 -0.14133,0.05048 -0.36616,-0.2362 z m -1.45726,-1.462872 -0.32786,-0.38723 0.38723,0.327853 c 0.36389,0.308102 0.46557,0.446608 0.32786,0.446608 -0.0327,0 -0.20692,-0.174254 -0.38723,-0.387231 z M 67.58234,56.626997 c 6.420351,-0.025 16.87558,-0.025 23.233843,9e-6 6.358263,0.02501 1.105248,0.04546 -11.673366,0.04546 -12.778614,-5e-6 -17.980828,-0.02046 -11.560477,-0.04547 z m 280.8149,-3.55007 c 0,-0.03574 0.13553,-0.171268 0.30118,-0.30118 0.27297,-0.214073 0.27905,-0.207986 0.065,0.06498 -0.22484,0.28668 -0.36617,0.377848 -0.36617,0.236201 z m 1.54892,-1.709899 c 0,-0.02962 0.2517,-0.281319 0.55934,-0.559334 l 0.55933,-0.50548 -0.50548,0.559333 c -0.47118,0.521378 -0.61319,0.63844 -0.61319,0.505481 z m 20.44794,-9.185147 c 0.12424,-0.04972 0.27268,-0.0436 0.32987,0.01358 0.0572,0.05719 -0.0445,0.09786 -0.22589,0.09039 -0.2005,-0.0083 -0.24127,-0.04904 -0.10398,-0.103977 z m 3.78625,0 c 0.12424,-0.04972 0.27268,-0.0436 0.32987,0.01358 0.0572,0.05719 -0.0445,0.09786 -0.22588,0.09039 -0.2005,-0.0083 -0.24127,-0.04904 -0.10399,-0.103977 z M 32.58908,41.029749 c 0,-0.03574 0.135531,-0.171268 0.301179,-0.30118 0.272965,-0.214073 0.279053,-0.207986 0.06498,0.06498 -0.224829,0.28668 -0.366158,0.377848 -0.366158,0.236201 z m 46.198705,-1.52697 -0.505481,-0.559333 0.559334,0.505481 c 0.521377,0.471179 0.63844,0.613185 0.50548,0.613185 -0.02962,0 -0.281319,-0.251699 -0.559333,-0.559333 z m 2.420262,-1.161692 c 0.562013,-0.567938 1.060563,-1.032615 1.107892,-1.032615 0.04733,0 -0.373776,0.464677 -0.935789,1.032615 -0.562013,0.567938 -1.060563,1.032615 -1.107891,1.032615 -0.04733,0 0.373776,-0.464677 0.935788,-1.032615 z m 56.246573,-0.68841 c 0,-0.615267 0.0312,-0.866967 0.0694,-0.559333 0.0382,0.307633 0.0382,0.811033 0,1.118666 -0.0382,0.307633 -0.0694,0.05593 -0.0694,-0.559333 z m -50.65324,-4.73282 c 0.514143,-0.52061 0.973529,-0.946564 1.020857,-0.946564 0.04733,0 -0.334612,0.425954 -0.848754,0.946564 -0.514143,0.52061 -0.973529,0.946564 -1.020858,0.946564 -0.04733,0 0.334612,-0.425954 0.848755,-0.946564 z m 94.11813,-2.968769 c -0.21406,-0.272965 -0.20799,-0.279052 0.065,-0.06498 0.16564,0.129912 0.30117,0.265443 0.30117,0.30118 0,0.141647 -0.14133,0.05048 -0.36616,-0.236201 z M 91.448149,28.47739 c 0,-0.02962 0.2517,-0.281319 0.559333,-0.559334 l 0.559333,-0.50548 -0.505481,0.559333 c -0.471178,0.521378 -0.613185,0.63844 -0.613185,0.505481 z m 87.750331,-0.247327 c -0.21406,-0.272965 -0.20798,-0.279052 0.065,-0.06498 0.16565,0.129911 0.30118,0.265442 0.30118,0.301179 0,0.141648 -0.14133,0.05048 -0.36617,-0.2362 z m 110.856,0.2362 c 0,-0.03574 0.13553,-0.171268 0.30118,-0.301179 0.27297,-0.214073 0.27905,-0.207986 0.065,0.06498 -0.22484,0.28668 -0.36617,0.377848 -0.36617,0.2362 z M 20.541902,26.896268 c 0.800399,-0.804579 1.493995,-1.462871 1.541323,-1.462871 0.04733,0 -0.568821,0.658292 -1.36922,1.462871 -0.800399,0.80458 -1.493995,1.462872 -1.541323,1.462872 -0.04733,0 0.568821,-0.658292 1.36922,-1.462872 z m 270.200988,0.881585 c 0,-0.03574 0.13553,-0.171268 0.30118,-0.301179 0.27297,-0.214074 0.27905,-0.207986 0.065,0.06498 -0.22484,0.28668 -0.36617,0.377847 -0.36617,0.2362 z M 89.188862,24.271704 c -0.214073,-0.272964 -0.207986,-0.279052 0.06498,-0.06498 0.165649,0.129912 0.30118,0.265443 0.30118,0.30118 0,0.141647 -0.141329,0.05048 -0.366159,-0.236201 z m 53.976098,-1.936153 c 0.17133,-0.189313 0.35023,-0.344205 0.39756,-0.344205 0.0473,0 -0.0541,0.154892 -0.22546,0.344205 -0.17132,0.189313 -0.35022,0.344205 -0.39755,0.344205 -0.0473,0 0.0541,-0.154892 0.22545,-0.344205 z m 46.1181,-0.731436 -1.02723,-1.075641 1.07564,1.027229 c 0.5916,0.564974 1.07564,1.049013 1.07564,1.075641 0,0.127166 -0.16985,-0.02805 -1.12405,-1.027229 z m -43.79471,-1.570876 c 0,-0.03574 0.13553,-0.171268 0.30118,-0.30118 0.27297,-0.214073 0.27904,-0.207986 0.065,0.06498 -0.22483,0.28668 -0.36616,0.377848 -0.36616,0.236201 z M 278.1794,16.430212 c 0,-0.02962 0.2517,-0.281319 0.55934,-0.559333 l 0.55933,-0.505481 -0.50548,0.559333 c -0.47118,0.521378 -0.61319,0.63844 -0.61319,0.505481 z M 54.836608,12.406441 c 0.167451,-0.04363 0.399789,-0.04077 0.516308,0.0064 0.116519,0.04714 -0.02049,0.08284 -0.304455,0.07934 -0.283969,-0.0035 -0.379303,-0.04208 -0.211853,-0.08571 z m 2.750366,6.88e-4 c 0.165649,-0.04329 0.43671,-0.04329 0.602359,0 0.165648,0.04329 0.03012,0.07871 -0.30118,0.07871 -0.331297,0 -0.466828,-0.03542 -0.301179,-0.07871 z"
     id="path5111" /><path
     style="fill:#ffffff;fill-opacity:1;stroke-width:0.172103"
     d="m 54.360051,110.68107 c -9.566953,-0.34648 -18.355121,-3.19954 -26.41774,-8.57646 -2.981392,-1.98826 -4.72232,-3.414511 -7.236905,-5.928757 -2.532611,-2.532282 -3.716005,-3.961164 -5.709568,-6.89398 C 10.605411,82.822933 8.1293214,76.507355 7.0007108,68.889288 6.5598357,65.913411 6.5580957,57.372121 6.9977678,54.432675 8.3368736,45.479959 11.841411,37.35934 17.276842,30.614285 c 1.849706,-2.295379 5.890345,-6.191431 8.269957,-7.974033 6.740162,-5.04915 14.942779,-8.465547 23.219921,-9.671119 4.466918,-0.650609 10.961151,-0.65337 15.656649,-0.0067 10.165742,1.400135 19.004366,5.691765 26.395858,12.816616 l 1.697711,1.636464 -5.052085,4.900618 c -2.778649,2.695345 -5.71038,5.533902 -6.514959,6.307913 l -1.462872,1.407293 -1.548923,-1.387675 C 73.863384,34.99318 69.70212,32.582323 65.665606,31.533547 63.122477,30.872787 61.021003,30.594938 57.716051,30.482486 51.583113,30.273813 47.015042,31.23244 41.886166,33.80445 c -7.714037,3.868408 -13.27942,10.913095 -15.321974,19.394625 -1.491556,6.193555 -1.264384,13.097454 0.620286,18.850842 3.233017,9.86953 11.544914,17.391684 21.802498,19.730954 3.486916,0.795217 8.666182,1.005302 12.643712,0.512865 6.417134,-0.79446 11.947639,-3.386943 16.144872,-7.568089 1.905062,-1.897757 3.246653,-3.788631 4.536351,-6.393678 0.806482,-1.629002 2.080033,-4.9971 2.080033,-5.500982 0,-0.205301 -2.127571,-0.241494 -14.198459,-0.241494 h -14.19846 v -7.916717 -7.916717 h 23.1254 23.125405 l 0.18537,0.989589 c 0.55445,2.959909 0.63016,3.935349 0.61779,7.959743 -0.0175,5.705044 -0.50484,9.378298 -1.89257,14.266354 -4.084157,14.385793 -15.771031,25.396945 -30.962935,29.172675 -4.474515,1.11207 -10.747305,1.72085 -15.833434,1.53665 z m 110.317729,-0.0617 c -11.97211,-0.74061 -22.35918,-7.59954 -27.74981,-18.324157 -0.98808,-1.965755 -1.93643,-4.269932 -2.46529,-5.98977 l -0.30711,-0.99878 0.42469,-0.161467 c 0.2336,-0.08882 2.78894,-1.137632 5.67856,-2.330698 2.88962,-1.193084 5.26882,-2.142436 5.28708,-2.109702 0.0183,0.03275 0.26271,0.756562 0.54319,1.60847 0.70489,2.140921 2.42205,5.548999 3.72803,7.399101 3.424,4.85059 8.74436,8.368452 14.06572,9.300387 1.69488,0.296825 5.28802,0.330368 7.18135,0.06703 3.47054,-0.482713 6.88078,-1.803721 9.18887,-3.559442 1.50774,-1.146908 3.21525,-3.00238 4.00557,-4.352662 0.35725,-0.610396 0.89083,-1.845542 1.18573,-2.744778 0.46824,-1.427866 0.5467,-1.943433 0.61933,-4.070018 0.1013,-2.966205 -0.1668,-4.415325 -1.23704,-6.686391 -1.66067,-3.523902 -4.4737,-6.057888 -9.54217,-8.59554 -2.54631,-1.274884 -4.57358,-2.096347 -10.4346,-4.228233 -9.63991,-3.506403 -12.96219,-4.954304 -15.99072,-6.96901 -6.04085,-4.018613 -9.46509,-8.76711 -10.85863,-15.057981 -0.43239,-1.951921 -0.54054,-6.891497 -0.19823,-9.052814 1.54453,-9.751827 10.01187,-18.011642 20.95147,-20.437985 6.00486,-1.331845 12.93597,-1.014397 18.57355,0.850675 7.11132,2.352628 13.70703,7.849043 16.76445,13.970329 0.85558,1.712957 1.37259,3.143536 1.1956,3.308248 -0.25411,0.236496 -10.75958,4.50699 -10.85427,4.412289 -0.0495,-0.04947 -0.33446,-0.693974 -0.63332,-1.432237 -1.41528,-3.49616 -4.32984,-6.630849 -7.90086,-8.49758 -3.0487,-1.593694 -5.77728,-2.141842 -9.99064,-2.007034 -2.23711,0.07158 -3.11282,0.176173 -4.48816,0.536072 -3.20865,0.839635 -6.50131,2.805517 -8.62127,5.147299 -1.07222,1.184405 -2.17214,3.254855 -2.57598,4.848898 -0.33863,1.336702 -0.33875,4.355685 0,5.693118 0.65667,2.594232 2.55207,5.149318 5.05028,6.808022 2.82198,1.873658 9.51102,4.782851 16.97736,7.383777 14.42912,5.026427 21.83197,11.029725 24.80941,20.119011 1.84004,5.617185 1.82947,12.262546 -0.0284,17.856946 -2.07802,6.257287 -6.75653,11.373127 -13.51207,14.775177 -5.27195,2.65489 -12.12977,3.93661 -18.84146,3.52143 z m 65.91527,-0.0115 c -8.85782,-0.55342 -15.44746,-4.59158 -18.9305,-11.600696 -1.60135,-3.222483 -2.47454,-6.530913 -2.83895,-10.756409 -0.10099,-1.171244 -0.17128,-10.567957 -0.17214,-23.018715 l -10e-4,-21.039467 h 5.93754 5.93753 l 0.003,19.576664 c 0.002,10.956341 0.0753,20.452821 0.16764,21.566428 0.67301,8.119729 4.21037,12.557926 11.19111,14.04102 1.07726,0.228879 2.2274,0.310697 4.38591,0.312005 3.34791,0.0021 4.40039,-0.199915 6.77112,-1.299168 1.88218,-0.872732 3.27788,-1.885693 4.78663,-3.47401 2.61758,-2.75562 4.25221,-5.836841 5.27047,-9.934637 0.35742,-1.438381 0.36448,-1.792155 0.422,-21.125586 l 0.0585,-19.662716 h 6.01738 6.01739 v 32.183175 32.183172 h -5.76543 -5.76544 v -4.47466 c 0,-4.147433 -0.022,-4.474565 -0.30118,-4.473171 -0.17847,0.0017 -0.57143,0.420981 -0.96446,1.031001 -1.66189,2.57945 -5.23453,5.63734 -8.54804,7.31642 -4.25678,2.15708 -8.47648,2.97441 -13.67831,2.64941 z m 139.05885,-0.1042 c -3.83208,-0.34819 -8.34351,-1.64158 -11.57802,-3.31932 -6.87763,-3.56741 -12.46539,-9.944738 -15.23232,-17.384662 -1.50958,-4.059125 -2.18893,-8.225349 -2.18893,-13.423998 0,-5.051657 0.51555,-8.468082 1.90805,-12.644167 2.93648,-8.80652 9.72479,-16.179427 17.8328,-19.36853 5.77158,-2.270122 12.67636,-2.786876 19.32642,-1.446385 9.22157,1.858845 16.05101,7.211727 20.13426,15.781136 2.31612,4.860781 3.60928,11.109205 3.61405,17.462817 l 0.002,2.452462 h -25.38716 -25.38716 l 0.082,0.645384 c 0.0451,0.354962 0.12815,1.148785 0.18458,1.764051 0.45087,4.915094 2.47418,9.28149 5.87026,12.668382 2.93201,2.924057 6.37344,4.806273 10.38911,5.682069 2.2019,0.480217 6.93744,0.444833 8.98503,-0.06715 5.32758,-1.332108 9.10216,-4.127019 12.50817,-9.261818 l 1.15083,-1.734949 5.18841,2.50941 c 2.85363,1.380159 5.23765,2.559939 5.29783,2.621724 0.15023,0.154256 -1.27906,2.487932 -2.67175,4.362335 -5.31622,7.155009 -13.30995,11.630029 -22.57805,12.639579 -1.55395,0.16929 -5.87243,0.20501 -7.45021,0.0616 z m 21.17858,-42.431859 c -0.37534,-2.28967 -0.52329,-2.922181 -0.97647,-4.17464 -1.53623,-4.245568 -5.29264,-7.987282 -9.59754,-9.559984 -4.27785,-1.562819 -9.77784,-1.786676 -13.70241,-0.557709 -4.80156,1.503589 -8.91768,5.164637 -11.17625,9.9406 -0.52461,1.109355 -1.64539,4.338756 -1.64539,4.741029 0,0.110937 6.46305,0.170037 18.59487,0.170037 h 18.59487 z m -66.80465,41.250169 c -0.76764,-0.12897 -2.15055,-0.50429 -3.07313,-0.83404 -6.58813,-2.35469 -10.51606,-7.55225 -11.27161,-14.91499 -0.1119,-1.090407 -0.17902,-8.609585 -0.17902,-20.055126 V 55.207136 h -5.67939 -5.67938 v -5.507281 -5.507282 h 5.67938 5.67939 v -9.809844 -9.809845 h 5.93753 5.93754 v 9.809845 9.809844 h 7.91672 7.91672 v 5.507282 5.507281 h -7.92426 -7.92424 l 0.0611,17.683536 c 0.0556,16.098936 0.0881,17.799206 0.36219,18.974305 0.78395,3.360715 2.5116,5.313632 5.50797,6.226188 1.63849,0.499011 4.24601,0.383651 6.19642,-0.274125 0.74589,-0.251562 1.39377,-0.419775 1.43974,-0.373807 0.12642,0.126427 3.65792,10.116897 3.65792,10.348127 0,0.17978 -1.21784,0.59923 -3.1839,1.09659 -2.64203,0.66838 -8.62478,0.8966 -11.37767,0.43402 z M 278.69571,76.375748 V 44.192573 h 5.93754 5.93754 v 32.183175 32.183172 h -5.93754 -5.93754 z m 4.00159,-46.212364 c -1.46337,-0.317893 -2.67148,-1.004876 -3.92953,-2.234501 -1.65958,-1.622088 -2.48149,-3.587052 -2.48149,-5.932615 0,-2.398533 0.66727,-4.091426 2.28951,-5.808495 1.70783,-1.80766 3.59722,-2.630947 6.02977,-2.627409 2.50368,0.0036 4.34777,0.756167 6.05937,2.472666 4.04449,4.056073 2.8974,10.930119 -2.24542,13.455886 -1.90848,0.937297 -3.59645,1.136257 -5.72221,0.674468 z"
     id="path5109" /></g></svg>
